0
SECTION
2
HEADER
9
$INSUNITS
70
4
0
ENDSEC
0
SECTION
2
TABLES
0
TABLE
2
LTYPE
0
LTYPE
72
65
70
64
2
CONTINUOUS
3
______
73
0
40
0
0
ENDTAB
0
TABLE
2
LAYER
0
ENDTAB
0
ENDSEC
0
SECTION
2
ENTITIES
0
LINE
8
0
10
117.8617747
20
-83.9399852
11
89.8577942
21
-95.0476292
0
LINE
8
0
10
89.8577942
20
-95.0476292
11
83.1482019
21
-161.9006687
0
LINE
8
0
10
83.1482019
20
-161.9006687
11
103.1419304
21
-221.2809125
0
LINE
8
0
10
103.1419304
20
-221.2809125
11
182.2927616
21
-231.9513695
0
LINE
8
0
10
182.2927616
20
-231.9513695
11
222.0095058
21
-218.2757978
0
LINE
8
0
10
222.0095058
20
-218.2757978
11
237.3790188
21
-218.2757978
0
LINE
8
0
10
237.3790188
20
-218.2757978
11
277.095763
21
-231.9513695
0
LINE
8
0
10
277.095763
20
-231.9513695
11
356.2465942
21
-221.2809125
0
LINE
8
0
10
356.2465942
20
-221.2809125
11
376.2403227
21
-161.9006687
0
LINE
8
0
10
376.2403227
20
-161.9006687
11
369.5307304
21
-95.0476292
0
LINE
8
0
10
369.5307304
20
-95.0476292
11
341.5267499
21
-83.9399852
0
LINE
8
0
10
341.5267499
20
-83.9399852
11
229.6942623
21
-80.3842967
0
LINE
8
0
10
229.6942623
20
-80.3842967
11
117.8617747
21
-83.9399852
0
LINE
8
0
10
339.8089395
20
-99.271687
11
359.5075566
21
-95.7982893
0
LINE
8
0
10
359.5075566
20
-95.7982893
11
369.5795851
21
-152.919601
0
LINE
8
0
10
369.5795851
20
-152.919601
11
349.880968
21
-156.3929987
0
LINE
8
0
10
349.880968
20
-156.3929987
11
348.3179173
21
-147.5284979
0
LINE
8
0
10
348.3179173
20
-147.5284979
11
330.0511368
21
-152.7720295
0
LINE
8
0
10
330.0511368
20
-152.7720295
11
328.6726054
21
-147.9645195
0
LINE
8
0
10
328.6726054
20
-147.9645195
11
320.1645813
21
-151.4061644
0
LINE
8
0
10
320.1645813
20
-151.4061644
11
319.6112892
21
-157.8295672
0
LINE
8
0
10
319.6112892
20
-157.8295672
11
329.9133383
21
-174.9750561
0
LINE
8
0
10
329.9133383
20
-174.9750561
11
297.2442308
21
-194.1698592
0
LINE
8
0
10
297.2442308
20
-194.1698592
11
285.2357808
21
-208.3110414
0
LINE
8
0
10
285.2357808
20
-208.3110414
11
278.7236037
21
-227.2237767
0
LINE
8
0
10
278.7236037
20
-227.2237767
11
241.8460155
21
-214.5258047
0
LINE
8
0
10
241.8460155
20
-214.5258047
11
248.3581926
21
-195.6130694
0
LINE
8
0
10
248.3581926
20
-195.6130694
11
252.9296434
21
-186.9182312
0
LINE
8
0
10
252.9296434
20
-186.9182312
11
272.4401488
21
-162.8247635
0
LINE
8
0
10
272.4401488
20
-162.8247635
11
272.0184389
21
-160.8329705
0
LINE
8
0
10
272.0184389
20
-160.8329705
11
254.9208682
21
-125.7777557
0
LINE
8
0
10
254.9208682
20
-125.7777557
11
272.0002021
21
-117.447608
0
LINE
8
0
10
272.0002021
20
-117.447608
11
270.2444706
21
-113.8535278
0
LINE
8
0
10
270.2444706
20
-113.8535278
11
288.2225985
21
-105.0850089
0
LINE
8
0
10
288.2225985
20
-105.0850089
11
290.0413731
21
-100.8402932
0
LINE
8
0
10
290.0413731
20
-100.8402932
11
308.7153156
21
-93.6720383
0
LINE
8
0
10
308.7153156
20
-93.6720383
11
314.0634811
21
-97.016448
0
LINE
8
0
10
314.0634811
20
-97.016448
11
333.2911181
21
-91.5030118
0
LINE
8
0
10
333.2911181
20
-91.5030118
11
339.8089395
21
-99.271687
0
LINE
8
0
10
119.5795851
20
-99.271687
11
99.880968
21
-95.7982893
0
LINE
8
0
10
99.880968
20
-95.7982893
11
89.8089395
21
-152.919601
0
LINE
8
0
10
89.8089395
20
-152.919601
11
109.5075566
21
-156.3929987
0
LINE
8
0
10
109.5075566
20
-156.3929987
11
111.0706073
21
-147.5284979
0
LINE
8
0
10
111.0706073
20
-147.5284979
11
129.3373878
21
-152.7720295
0
LINE
8
0
10
129.3373878
20
-152.7720295
11
130.7159192
21
-147.9645195
0
LINE
8
0
10
130.7159192
20
-147.9645195
11
139.2239433
21
-151.4061644
0
LINE
8
0
10
139.2239433
20
-151.4061644
11
139.7772354
21
-157.8295672
0
LINE
8
0
10
139.7772354
20
-157.8295672
11
129.4751863
21
-174.9750561
0
LINE
8
0
10
129.4751863
20
-174.9750561
11
162.1442938
21
-194.1698592
0
LINE
8
0
10
162.1442938
20
-194.1698592
11
174.1527438
21
-208.3110414
0
LINE
8
0
10
174.1527438
20
-208.3110414
11
180.6649209
21
-227.2237767
0
LINE
8
0
10
180.6649209
20
-227.2237767
11
217.5425091
21
-214.5258047
0
LINE
8
0
10
217.5425091
20
-214.5258047
11
211.030332
21
-195.6130694
0
LINE
8
0
10
211.030332
20
-195.6130694
11
206.4588812
21
-186.9182312
0
LINE
8
0
10
186.9483758
20
-162.8247635
11
206.4588812
21
-186.9182312
0
LINE
8
0
10
186.9483758
20
-162.8247635
11
187.3700857
21
-160.8329705
0
LINE
8
0
10
187.3700857
20
-160.8329705
11
204.4676564
21
-125.7777557
0
LINE
8
0
10
204.4676564
20
-125.7777557
11
187.3883225
21
-117.447608
0
LINE
8
0
10
187.3883225
20
-117.447608
11
189.144054
21
-113.8535278
0
LINE
8
0
10
189.144054
20
-113.8535278
11
171.1659261
21
-105.0850089
0
LINE
8
0
10
171.1659261
20
-105.0850089
11
169.3471515
21
-100.8402932
0
LINE
8
0
10
169.3471515
20
-100.8402932
11
150.673209
21
-93.6720383
0
LINE
8
0
10
150.673209
20
-93.6720383
11
145.3250435
21
-97.016448
0
LINE
8
0
10
145.3250435
20
-97.016448
11
126.0974065
21
-91.5030118
0
LINE
8
0
10
126.0974065
20
-91.5030118
11
119.5795851
21
-99.271687
0
CIRCLE
8
0
10
229.6942623
20
-85.3825602
40
3
0
CIRCLE
8
0
10
229.6942623
20
-213.3255256
40
3
0
CIRCLE
8
0
10
116.8049535
20
-91.9651242
40
3
0
CIRCLE
8
0
10
342.5835711
20
-91.9651242
40
3
0
CIRCLE
8
0
10
112.6298419
20
-215.105311
40
3
0
CIRCLE
8
0
10
346.7586827
20
-215.105311
40
3
0
CIRCLE
8
0
10
93.3452409
20
-161.66529
40
3
0
CIRCLE
8
0
10
366.0432837
20
-161.66529
40
3
0
CIRCLE
8
0
10
132.981494
20
-156.5065887
40
3
0
CIRCLE
8
0
10
326.4070306
20
-156.5065887
40
3
0
CIRCLE
8
0
10
193.6406882
20
-161.6633623
40
3
0
CIRCLE
8
0
10
265.7478364
20
-161.6633623
40
3
0
CIRCLE
8
0
10
204.4003776
20
-119.06933
40
3
0
CIRCLE
8
0
10
254.988147
20
-119.06933
40
3
0
ENDSEC
0
EOF