0
SECTION
2
HEADER
9
$INSUNITS
70
4
0
ENDSEC
0
SECTION
2
TABLES
0
TABLE
2
LTYPE
0
LTYPE
72
65
70
64
2
CONTINUOUS
3
______
73
0
40
0
0
ENDTAB
0
TABLE
2
LAYER
0
ENDTAB
0
ENDSEC
0
SECTION
2
ENTITIES
0
LINE
8
0
10
89.8577942
20
-95.0476292
11
117.8617747
21
-83.9399852
0
LINE
8
0
10
83.1482019
20
-161.9006687
11
89.8577942
21
-95.0476292
0
LINE
8
0
10
83.1482019
20
-161.9006687
11
103.1419304
21
-221.2809125
0
LINE
8
0
10
103.1419304
20
-221.2809125
11
182.2927616
21
-231.9513695
0
LINE
8
0
10
182.2927616
20
-231.9513695
11
222.0095058
21
-218.2757978
0
LINE
8
0
10
222.0095058
20
-218.2757978
11
237.3790188
21
-218.2757978
0
LINE
8
0
10
237.3790188
20
-218.2757978
11
277.095763
21
-231.9513695
0
LINE
8
0
10
277.095763
20
-231.9513695
11
356.2465942
21
-221.2809125
0
LINE
8
0
10
356.2465942
20
-221.2809125
11
376.2403227
21
-161.9006687
0
LINE
8
0
10
369.5307304
20
-95.0476292
11
376.2403227
21
-161.9006687
0
LINE
8
0
10
341.5267499
20
-83.9399852
11
369.5307304
21
-95.0476292
0
LINE
8
0
10
229.6942623
20
-80.3842967
11
341.5267499
21
-83.9399852
0
LINE
8
0
10
117.8617747
20
-83.9399852
11
229.6942623
21
-80.3842967
0
LINE
8
0
10
90.9688435
20
-152.1074275
11
108.6953831
21
-155.2330947
0
LINE
8
0
10
108.6953831
20
-155.2330947
11
111.8210503
21
-137.5065551
0
LINE
8
0
10
111.8210503
20
-137.5065551
11
94.0945107
21
-134.3808879
0
LINE
8
0
10
94.0945107
20
-134.3808879
11
90.9688435
21
-152.1074275
0
LINE
8
0
10
94.2681589
20
-133.3960802
11
111.9946985
21
-136.5217474
0
LINE
8
0
10
111.9946985
20
-136.5217474
11
115.1203657
21
-118.7952078
0
LINE
8
0
10
115.1203657
20
-118.7952078
11
97.3938261
21
-115.6695406
0
LINE
8
0
10
97.3938261
20
-115.6695406
11
94.2681589
21
-133.3960802
0
LINE
8
0
10
97.5674743
20
-114.6847329
11
115.2940139
21
-117.8104001
0
LINE
8
0
10
115.2940139
20
-117.8104001
11
118.4196811
21
-100.0838605
0
LINE
8
0
10
118.4196811
20
-100.0838605
11
100.6931415
21
-96.9581933
0
LINE
8
0
10
100.6931415
20
-96.9581933
11
97.5674743
21
-114.6847329
0
LINE
8
0
10
111.3481959
20
-146.572112
11
128.6509065
21
-151.5335844
0
LINE
8
0
10
128.6509065
20
-151.5335844
11
133.6123789
21
-134.2308738
0
LINE
8
0
10
133.6123789
20
-134.2308738
11
116.3096683
21
-129.2694014
0
LINE
8
0
10
116.3096683
20
-129.2694014
11
111.3481959
21
-146.572112
0
LINE
8
0
10
116.5853057
20
-128.3081398
11
133.8880163
21
-133.2696122
0
LINE
8
0
10
133.8880163
20
-133.2696122
11
138.8494887
21
-115.9669016
0
LINE
8
0
10
138.8494887
20
-115.9669016
11
121.5467781
21
-111.0054292
0
LINE
8
0
10
121.5467781
20
-111.0054292
11
116.5853057
21
-128.3081398
0
LINE
8
0
10
121.8224154
20
-110.0441675
11
139.125126
21
-115.0056399
0
LINE
8
0
10
139.125126
20
-115.0056399
11
144.0865984
21
-97.7029293
0
LINE
8
0
10
144.0865984
20
-97.7029293
11
126.7838878
21
-92.7414569
0
LINE
8
0
10
126.7838878
20
-92.7414569
11
121.8224154
21
-110.0441675
0
LINE
8
0
10
131.1805354
20
-147.2461055
11
147.9849831
21
-153.6967286
0
LINE
8
0
10
147.9849831
20
-153.6967286
11
154.4356062
21
-136.8922809
0
LINE
8
0
10
154.4356062
20
-136.8922809
11
137.6311585
21
-130.4416578
0
LINE
8
0
10
137.6311585
20
-130.4416578
11
131.1805354
21
-147.2461055
0
LINE
8
0
10
137.9895264
20
-129.5080774
11
154.7939741
21
-135.9587005
0
LINE
8
0
10
154.7939741
20
-135.9587005
11
161.2445972
21
-119.1542528
0
LINE
8
0
10
161.2445972
20
-119.1542528
11
144.4401495
21
-112.7036297
0
LINE
8
0
10
144.4401495
20
-112.7036297
11
137.9895264
21
-129.5080774
0
LINE
8
0
10
144.7985174
20
-111.7700493
11
161.6029651
21
-118.2206724
0
LINE
8
0
10
161.6029651
20
-118.2206724
11
168.0535882
21
-101.4162247
0
LINE
8
0
10
168.0535882
20
-101.4162247
11
151.2491405
21
-94.9656016
0
LINE
8
0
10
151.2491405
20
-94.9656016
11
144.7985174
21
-111.7700493
0
LINE
8
0
10
147.0781403
20
-156.7563121
11
163.2564331
21
-164.6469927
0
LINE
8
0
10
163.2564331
20
-164.6469927
11
171.1471137
21
-148.4686999
0
LINE
8
0
10
171.1471137
20
-148.4686999
11
154.9688209
21
-140.5780193
0
LINE
8
0
10
154.9688209
20
-140.5780193
11
147.0781403
21
-156.7563121
0
LINE
8
0
10
155.4071921
20
-139.6792253
11
171.5854849
21
-147.5699059
0
LINE
8
0
10
171.5854849
20
-147.5699059
11
179.4761655
21
-131.3916131
0
LINE
8
0
10
179.4761655
20
-131.3916131
11
163.2978727
21
-123.5009325
0
LINE
8
0
10
163.2978727
20
-123.5009325
11
155.4071921
21
-139.6792253
0
LINE
8
0
10
163.7362439
20
-122.6021384
11
179.9145367
21
-130.492819
0
LINE
8
0
10
179.9145367
20
-130.492819
11
187.8052173
21
-114.3145262
0
LINE
8
0
10
187.8052173
20
-114.3145262
11
171.6269245
21
-106.4238456
0
LINE
8
0
10
171.6269245
20
-106.4238456
11
163.7362439
21
-122.6021384
0
LINE
8
0
10
162.4017427
20
-168.6805401
11
178.5800355
21
-176.5712207
0
LINE
8
0
10
178.5800355
20
-176.5712207
11
186.4707161
21
-160.3929279
0
LINE
8
0
10
186.4707161
20
-160.3929279
11
170.2924233
21
-152.5022473
0
LINE
8
0
10
170.2924233
20
-152.5022473
11
162.4017427
21
-168.6805401
0
LINE
8
0
10
170.7307945
20
-151.6034532
11
186.9090873
21
-159.4941338
0
LINE
8
0
10
186.9090873
20
-159.4941338
11
194.7997679
21
-143.315841
0
LINE
8
0
10
194.7997679
20
-143.315841
11
178.6214751
21
-135.4251604
0
LINE
8
0
10
178.6214751
20
-135.4251604
11
170.7307945
21
-151.6034532
0
LINE
8
0
10
179.0598463
20
-134.5263663
11
195.2381391
21
-142.4170469
0
LINE
8
0
10
195.2381391
20
-142.4170469
11
203.1288197
21
-126.2387541
0
LINE
8
0
10
203.1288197
20
-126.2387541
11
186.9505269
21
-118.3480735
0
LINE
8
0
10
186.9505269
20
-118.3480735
11
179.0598463
21
-134.5263663
0
LINE
8
0
10
350.6931415
20
-155.2330947
11
368.4196811
21
-152.1074275
0
LINE
8
0
10
368.4196811
20
-152.1074275
11
365.2940139
21
-134.3808879
0
LINE
8
0
10
365.2940139
20
-134.3808879
11
347.5674743
21
-137.5065551
0
LINE
8
0
10
347.5674743
20
-137.5065551
11
350.6931415
21
-155.2330947
0
LINE
8
0
10
347.3938261
20
-136.5217474
11
365.1203657
21
-133.3960802
0
LINE
8
0
10
365.1203657
20
-133.3960802
11
361.9946985
21
-115.6695406
0
LINE
8
0
10
361.9946985
20
-115.6695406
11
344.2681589
21
-118.7952078
0
LINE
8
0
10
344.2681589
20
-118.7952078
11
347.3938261
21
-136.5217474
0
LINE
8
0
10
344.0945107
20
-117.8104001
11
361.8210503
21
-114.6847329
0
LINE
8
0
10
361.8210503
20
-114.6847329
11
358.6953831
21
-96.9581933
0
LINE
8
0
10
358.6953831
20
-96.9581933
11
340.9688435
21
-100.0838605
0
LINE
8
0
10
340.9688435
20
-100.0838605
11
344.0945107
21
-117.8104001
0
LINE
8
0
10
330.7376181
20
-151.5335844
11
348.0403287
21
-146.572112
0
LINE
8
0
10
348.0403287
20
-146.572112
11
343.0788563
21
-129.2694014
0
LINE
8
0
10
343.0788563
20
-129.2694014
11
325.7761457
21
-134.2308738
0
LINE
8
0
10
325.7761457
20
-134.2308738
11
330.7376181
21
-151.5335844
0
LINE
8
0
10
325.5005083
20
-133.2696122
11
342.8032189
21
-128.3081398
0
LINE
8
0
10
342.8032189
20
-128.3081398
11
337.8417465
21
-111.0054292
0
LINE
8
0
10
337.8417465
20
-111.0054292
11
320.5390359
21
-115.9669016
0
LINE
8
0
10
320.5390359
20
-115.9669016
11
325.5005083
21
-133.2696122
0
LINE
8
0
10
320.2633986
20
-115.0056399
11
337.5661092
21
-110.0441675
0
LINE
8
0
10
337.5661092
20
-110.0441675
11
332.6046368
21
-92.7414569
0
LINE
8
0
10
332.6046368
20
-92.7414569
11
315.3019262
21
-97.7029293
0
LINE
8
0
10
315.3019262
20
-97.7029293
11
320.2633986
21
-115.0056399
0
LINE
8
0
10
311.4035415
20
-153.6967286
11
328.2079892
21
-147.2461055
0
LINE
8
0
10
328.2079892
20
-147.2461055
11
321.7573661
21
-130.4416578
0
LINE
8
0
10
321.7573661
20
-130.4416578
11
304.9529184
21
-136.8922809
0
LINE
8
0
10
304.9529184
20
-136.8922809
11
311.4035415
21
-153.6967286
0
LINE
8
0
10
304.5945505
20
-135.9587005
11
321.3989982
21
-129.5080774
0
LINE
8
0
10
321.3989982
20
-129.5080774
11
314.9483751
21
-112.7036297
0
LINE
8
0
10
314.9483751
20
-112.7036297
11
298.1439274
21
-119.1542528
0
LINE
8
0
10
298.1439274
20
-119.1542528
11
304.5945505
21
-135.9587005
0
LINE
8
0
10
297.7855595
20
-118.2206724
11
314.5900072
21
-111.7700493
0
LINE
8
0
10
314.5900072
20
-111.7700493
11
308.1393841
21
-94.9656016
0
LINE
8
0
10
308.1393841
20
-94.9656016
11
291.3349364
21
-101.4162247
0
LINE
8
0
10
291.3349364
20
-101.4162247
11
297.7855595
21
-118.2206724
0
LINE
8
0
10
296.1320915
20
-164.6469927
11
312.3103843
21
-156.7563121
0
LINE
8
0
10
312.3103843
20
-156.7563121
11
304.4197037
21
-140.5780193
0
LINE
8
0
10
304.4197037
20
-140.5780193
11
288.2414109
21
-148.4686999
0
LINE
8
0
10
288.2414109
20
-148.4686999
11
296.1320915
21
-164.6469927
0
LINE
8
0
10
287.8030397
20
-147.5699059
11
303.9813325
21
-139.6792253
0
LINE
8
0
10
303.9813325
20
-139.6792253
11
296.0906519
21
-123.5009325
0
LINE
8
0
10
296.0906519
20
-123.5009325
11
279.9123591
21
-131.3916131
0
LINE
8
0
10
279.9123591
20
-131.3916131
11
287.8030397
21
-147.5699059
0
LINE
8
0
10
279.4739879
20
-130.492819
11
295.6522807
21
-122.6021384
0
LINE
8
0
10
295.6522807
20
-122.6021384
11
287.7616001
21
-106.4238456
0
LINE
8
0
10
287.7616001
20
-106.4238456
11
271.5833073
21
-114.3145262
0
LINE
8
0
10
271.5833073
20
-114.3145262
11
279.4739879
21
-130.492819
0
LINE
8
0
10
280.8084891
20
-176.5712207
11
296.9867819
21
-168.6805401
0
LINE
8
0
10
296.9867819
20
-168.6805401
11
289.0961013
21
-152.5022473
0
LINE
8
0
10
289.0961013
20
-152.5022473
11
272.9178085
21
-160.3929279
0
LINE
8
0
10
272.9178085
20
-160.3929279
11
280.8084891
21
-176.5712207
0
LINE
8
0
10
272.4794373
20
-159.4941338
11
288.6577301
21
-151.6034532
0
LINE
8
0
10
288.6577301
20
-151.6034532
11
280.7670495
21
-135.4251604
0
LINE
8
0
10
280.7670495
20
-135.4251604
11
264.5887567
21
-143.315841
0
LINE
8
0
10
264.5887567
20
-143.315841
11
272.4794373
21
-159.4941338
0
LINE
8
0
10
264.1503855
20
-142.4170469
11
280.3286783
21
-134.5263663
0
LINE
8
0
10
280.3286783
20
-134.5263663
11
272.4379977
21
-118.3480735
0
LINE
8
0
10
272.4379977
20
-118.3480735
11
256.2597049
21
-126.2387541
0
LINE
8
0
10
256.2597049
20
-126.2387541
11
264.1503855
21
-142.4170469
0
LINE
8
0
10
163.5525182
20
-194.3178696
11
174.8802853
21
-208.3064969
0
LINE
8
0
10
174.8802853
20
-208.3064969
11
188.8689126
21
-196.9787298
0
LINE
8
0
10
188.8689126
20
-196.9787298
11
177.5411455
21
-182.9901025
0
LINE
8
0
10
177.5411455
20
-182.9901025
11
163.5525182
21
-194.3178696
0
LINE
8
0
10
179.7342624
20
-184.1093606
11
191.0620295
21
-198.0979879
0
LINE
8
0
10
191.0620295
20
-198.0979879
11
205.0506568
21
-186.7702208
0
LINE
8
0
10
205.0506568
20
-186.7702208
11
193.7228897
21
-172.7815935
0
LINE
8
0
10
193.7228897
20
-172.7815935
11
179.7342624
21
-184.1093606
0
LINE
8
0
10
175.4254194
20
-208.9317667
11
181.2856462
21
-225.9511011
0
LINE
8
0
10
181.2856462
20
-225.9511011
11
198.3049806
21
-220.0908743
0
LINE
8
0
10
198.3049806
20
-220.0908743
11
192.4447538
21
-203.0715399
0
LINE
8
0
10
192.4447538
20
-203.0715399
11
175.4254194
21
-208.9317667
0
LINE
8
0
10
193.3902723
20
-202.7459718
11
199.2504991
21
-219.7653062
0
LINE
8
0
10
199.2504991
20
-219.7653062
11
216.2698335
21
-213.9050794
0
LINE
8
0
10
216.2698335
20
-213.9050794
11
210.4096067
21
-196.885745
0
LINE
8
0
10
210.4096067
20
-196.885745
11
193.3902723
21
-202.7459718
0
LINE
8
0
10
130.8491069
20
-174.6324992
11
146.2781183
21
-183.9031846
0
LINE
8
0
10
146.2781183
20
-183.9031846
11
155.5488037
21
-168.4741732
0
LINE
8
0
10
155.5488037
20
-168.4741732
11
140.1197923
21
-159.2034878
0
LINE
8
0
10
140.1197923
20
-159.2034878
11
130.8491069
21
-174.6324992
0
LINE
8
0
10
147.1352856
20
-184.4182226
11
162.564297
21
-193.688908
0
LINE
8
0
10
162.564297
20
-193.688908
11
171.8349824
21
-178.2598966
0
LINE
8
0
10
171.8349824
20
-178.2598966
11
156.405971
21
-168.9892112
0
LINE
8
0
10
156.405971
20
-168.9892112
11
147.1352856
21
-184.4182226
0
LINE
8
0
10
284.5082393
20
-208.3064969
11
295.8360064
21
-194.3178696
0
LINE
8
0
10
295.8360064
20
-194.3178696
11
281.8473791
21
-182.9901025
0
LINE
8
0
10
281.8473791
20
-182.9901025
11
270.519612
21
-196.9787298
0
LINE
8
0
10
270.519612
20
-196.9787298
11
284.5082393
21
-208.3064969
0
LINE
8
0
10
268.3264951
20
-198.0979879
11
279.6542622
21
-184.1093606
0
LINE
8
0
10
279.6542622
20
-184.1093606
11
265.6656349
21
-172.7815935
0
LINE
8
0
10
265.6656349
20
-172.7815935
11
254.3378678
21
-186.7702208
0
LINE
8
0
10
254.3378678
20
-186.7702208
11
268.3264951
21
-198.0979879
0
LINE
8
0
10
278.1028784
20
-225.9511011
11
283.9631052
21
-208.9317667
0
LINE
8
0
10
283.9631052
20
-208.9317667
11
266.9437708
21
-203.0715399
0
LINE
8
0
10
266.9437708
20
-203.0715399
11
261.083544
21
-220.0908743
0
LINE
8
0
10
261.083544
20
-220.0908743
11
278.1028784
21
-225.9511011
0
LINE
8
0
10
260.1380255
20
-219.7653062
11
265.9982523
21
-202.7459718
0
LINE
8
0
10
265.9982523
20
-202.7459718
11
248.9789179
21
-196.885745
0
LINE
8
0
10
248.9789179
20
-196.885745
11
243.1186911
21
-213.9050794
0
LINE
8
0
10
243.1186911
20
-213.9050794
11
260.1380255
21
-219.7653062
0
LINE
8
0
10
313.1104063
20
-183.9031846
11
328.5394177
21
-174.6324992
0
LINE
8
0
10
328.5394177
20
-174.6324992
11
319.2687323
21
-159.2034878
0
LINE
8
0
10
319.2687323
20
-159.2034878
11
303.8397209
21
-168.4741732
0
LINE
8
0
10
303.8397209
20
-168.4741732
11
313.1104063
21
-183.9031846
0
LINE
8
0
10
296.8242276
20
-193.688908
11
312.253239
21
-184.4182226
0
LINE
8
0
10
312.253239
20
-184.4182226
11
302.9825536
21
-168.9892112
0
LINE
8
0
10
302.9825536
20
-168.9892112
11
287.5535422
21
-178.2598966
0
LINE
8
0
10
287.5535422
20
-178.2598966
11
296.8242276
21
-193.688908
0
CIRCLE
8
0
10
229.6942623
20
-85.3825602
40
3
0
CIRCLE
8
0
10
229.6942623
20
-213.3255256
40
3
0
CIRCLE
8
0
10
116.8049535
20
-91.9651242
40
3
0
CIRCLE
8
0
10
342.5835711
20
-91.9651242
40
3
0
CIRCLE
8
0
10
112.6298419
20
-215.105311
40
3
0
CIRCLE
8
0
10
346.7586827
20
-215.105311
40
3
0
CIRCLE
8
0
10
93.3452409
20
-161.66529
40
3
0
CIRCLE
8
0
10
366.0432837
20
-161.66529
40
3
0
CIRCLE
8
0
10
132.981494
20
-156.5065887
40
3
0
CIRCLE
8
0
10
326.4070306
20
-156.5065887
40
3
0
CIRCLE
8
0
10
193.6406882
20
-161.6633623
40
3
0
CIRCLE
8
0
10
265.7478364
20
-161.6633623
40
3
0
CIRCLE
8
0
10
204.4003776
20
-119.06933
40
3
0
CIRCLE
8
0
10
254.988147
20
-119.06933
40
3
0
LINE
8
0
10
211.0856555
20
-116.7683391
11
218.9763361
21
-100.5900462
0
ARC
8
0
10
218.0775421
20
-100.1516751
40
1
50
334
51
64
0
LINE
8
0
10
218.5159132
20
-99.252881
11
189.7545038
21
-85.2250044
0
LINE
8
0
10
176.010636
20
-97.4359051
11
175.1338937
21
-99.2334932
0
ARC
8
0
10
176.0326877
20
-99.6718643
40
1
50
154
51
244
0
LINE
8
0
10
175.5943166
20
-100.5706584
11
209.7484903
21
-117.228762
0
ARC
8
0
10
210.1868615
20
-116.3299679
40
1
50
244
51
334
0
ARC
8
0
10
188.8557098
20
-84.7866332
40
1
50
334
51
64
0
LINE
8
0
10
189.2940809
20
-83.8878392
11
185.0228373
21
-81.8046145
0
ARC
8
0
10
147.6875976
20
-82.5092344
40
1
50
210.6504022
51
244
0
LINE
8
0
10
147.2492265
20
-83.4080284
11
176.010636
21
-97.4359051
0
CIRCLE
8
0
10
218.7496352
20
-208.8207325
40
5
0
CIRCLE
8
0
10
240.6388894
20
-208.8207325
40
5
0
CIRCLE
8
0
10
144.7006042
20
-91.9336814
40
5
0
CIRCLE
8
0
10
314.6879204
20
-91.9336814
40
5
0
CIRCLE
8
0
10
105.5104476
20
-197.3764017
40
5
0
CIRCLE
8
0
10
353.878077
20
-197.3764017
40
5
0
CIRCLE
8
0
10
126.3413826
20
-212.8706634
40
5
0
CIRCLE
8
0
10
333.047142
20
-212.8706634
40
5
0
CIRCLE
8
0
10
99.313573
20
-173.8873607
40
5
0
CIRCLE
8
0
10
360.0749516
20
-173.8873607
40
5
0
CIRCLE
8
0
10
161.2738267
20
-216.9774129
40
5
0
CIRCLE
8
0
10
298.1146979
20
-216.9774129
40
5
0
CIRCLE
8
0
10
241.881664
20
-87.6347136
40
5
0
CIRCLE
8
0
10
217.5068606
20
-87.6347136
40
5
0
CIRCLE
8
0
10
96.1758847
20
-105.3005186
40
5
0
CIRCLE
8
0
10
363.2126399
20
-105.3005186
40
5
0
LINE
8
0
10
340.946184
20
-99.0711601
11
357.5379411
21
-96.1455857
0
LINE
8
0
10
359.854853
20
-97.7679048
11
369.2322887
21
-150.9499855
0
LINE
8
0
10
367.6099696
20
-153.2668974
11
351.8505835
21
-156.0457023
0
LINE
8
0
10
349.5336716
20
-154.4233832
11
348.7037392
21
-149.7166025
0
LINE
8
0
10
346.1823029
20
-148.1415321
11
331.9740496
21
-152.2200519
0
LINE
8
0
10
329.4997054
20
-150.8489599
11
329.285118
21
-150.1006048
0
LINE
8
0
10
326.6125985
20
-148.7978284
11
321.301918
21
-150.9460918
0
LINE
8
0
10
320.0592927
20
-152.6285048
11
319.6669306
21
-157.1836028
0
LINE
8
0
10
319.9452175
20
-158.3853172
11
329.5692501
21
-174.4023972
0
LINE
8
0
10
275.4482884
20
-226.0959952
11
243.7370525
21
-215.176941
0
LINE
8
0
10
242.4971519
20
-212.6347674
11
248.3084682
21
-195.7574795
0
LINE
8
0
10
248.429268
20
-195.477885
11
252.8378422
21
-187.0928358
0
LINE
8
0
10
253.0537877
20
-186.7649258
11
271.8404234
21
-163.5653626
0
LINE
8
0
10
272.2427575
20
-161.8924577
11
272.0184389
21
-160.8329705
0
LINE
8
0
10
272.0184389
20
-160.8329705
11
255.7976105
21
-127.5753438
0
LINE
8
0
10
256.7184563
20
-124.9010134
11
270.2014901
21
-118.3248984
0
LINE
8
0
10
271.1217877
20
-115.6494447
11
270.2444706
21
-113.8535278
0
LINE
8
0
10
270.2444706
20
-113.8535278
11
287.553977
21
-105.4111174
0
LINE
8
0
10
288.5155858
20
-104.4012255
11
289.7085898
21
-101.6169537
0
LINE
8
0
10
290.8302051
20
-100.537489
11
307.783991
21
-94.0295403
0
LINE
8
0
10
309.5611365
20
-94.200962
11
313.3081473
21
-96.5441093
0
LINE
8
0
10
314.9198317
20
-96.7708934
11
332.0425268
21
-91.8610396
0
LINE
8
0
10
334.125975
20
-92.4980885
11
339.0667142
21
-98.3870191
0
LINE
8
0
10
118.4423406
20
-99.0711601
11
101.8505835
21
-96.1455857
0
LINE
8
0
10
99.5336716
20
-97.7679048
11
90.1562359
21
-150.9499855
0
LINE
8
0
10
91.778555
20
-153.2668974
11
107.5379411
21
-156.0457023
0
LINE
8
0
10
109.854853
20
-154.4233832
11
110.6847854
21
-149.7166025
0
LINE
8
0
10
113.2062217
20
-148.1415321
11
127.414475
21
-152.2200519
0
LINE
8
0
10
129.8888192
20
-150.8489599
11
130.1034066
21
-150.1006048
0
LINE
8
0
10
132.7759261
20
-148.7978284
11
138.0866066
21
-150.9460918
0
LINE
8
0
10
139.3292319
20
-152.6285048
11
139.721594
21
-157.1836028
0
LINE
8
0
10
139.4433071
20
-158.3853172
11
129.8192745
21
-174.4023972
0
LINE
8
0
10
183.9402362
20
-226.0959952
11
215.6514721
21
-215.176941
0
LINE
8
0
10
216.8913727
20
-212.6347674
11
211.0800564
21
-195.7574795
0
LINE
8
0
10
210.9592566
20
-195.477885
11
206.5506824
21
-187.0928358
0
LINE
8
0
10
186.9483758
20
-162.8247635
11
206.3347369
21
-186.7649258
0
LINE
8
0
10
186.9483758
20
-162.8247635
11
187.3190529
21
-161.0740053
0
LINE
8
0
10
187.4780908
20
-160.6115273
11
203.5909141
21
-127.5753438
0
LINE
8
0
10
202.6700683
20
-124.9010134
11
187.3883225
21
-117.447608
0
LINE
8
0
10
187.3883225
20
-117.447608
11
188.2656396
21
-115.6516911
0
LINE
8
0
10
187.345342
20
-112.9762374
11
171.8345476
21
-105.4111174
0
LINE
8
0
10
170.8729388
20
-104.4012255
11
169.6799348
21
-101.6169537
0
LINE
8
0
10
168.5583195
20
-100.537489
11
151.6045336
21
-94.0295403
0
LINE
8
0
10
149.8273881
20
-94.200962
11
146.0803773
21
-96.5441093
0
LINE
8
0
10
144.4686929
20
-96.7708934
11
127.3459978
21
-91.8610396
0
LINE
8
0
10
125.2625496
20
-92.4980885
11
120.3218104
21
-98.3870191
0
LINE
8
0
10
123.8220418
20
-221.97338
11
128.4469544
21
-173.7739154
0
LINE
8
0
10
128.4469544
20
-173.7739154
11
129.8192745
21
-174.4023972
0
LINE
8
0
10
182.6287637
20
-228.3719564
11
182.8230714
21
-229.3626714
0
LINE
8
0
10
335.5664828
20
-221.97338
11
330.9415702
21
-173.7739154
0
LINE
8
0
10
330.9415702
20
-173.7739154
11
329.5692501
21
-174.4023972
0
LINE
8
0
10
276.7597609
20
-228.3719564
11
276.5654532
21
-229.3626714
0
ARC
8
0
10
91.7262838
20
-96.4580849
40
2
50
111.6355151
51
174.2687989
0
ARC
8
0
10
85.1812767
20
-161.6712302
40
2
50
174.2687989
51
198.6087292
0
ARC
8
0
10
104.6407896
20
-219.4648839
40
2
50
198.6087292
51
262.3221482
0
ARC
8
0
10
121.8311858
20
-221.7823502
40
2
50
262.3221482
51
354.5190438
0
ARC
8
0
10
137.7289725
20
-157.355241
40
2
50
328.9999987
51
4.9231281
0
ARC
8
0
10
137.3366104
20
-152.800143
40
2
50
4.9231281
51
67.975805
0
ARC
8
0
10
132.0259299
20
-150.6518796
40
2
50
67.975805
51
163.9999976
0
ARC
8
0
10
127.9662958
20
-150.2976851
40
2
50
253.9837252
51
343.9999976
0
ARC
8
0
10
112.6544009
20
-150.0638989
40
2
50
73.9837252
51
169.9999992
0
ARC
8
0
10
107.8852375
20
-154.0760868
40
2
50
259.9999992
51
349.9999992
0
ARC
8
0
10
92.1258514
20
-151.2972819
40
2
50
169.9999992
51
259.9999992
0
ARC
8
0
10
101.5032871
20
-98.1152012
40
2
50
79.9999992
51
169.9999992
0
ARC
8
0
10
118.789637
20
-97.1015446
40
2
50
259.9999992
51
320.0037688
0
ARC
8
0
10
126.794723
20
-93.783563
40
2
50
73.9999976
51
140.0037688
0
ARC
8
0
10
145.0199677
20
-94.84837
40
2
50
253.9999976
51
302.0192936
0
ARC
8
0
10
150.8877978
20
-95.8967012
40
2
50
69.0000021
51
122.0192936
0
ARC
8
0
10
167.8415837
20
-102.4046499
40
2
50
23.1941533
51
69.0000021
0
ARC
8
0
10
172.7112899
20
-103.6135293
40
2
50
203.1941533
51
244.0000012
0
ARC
8
0
10
186.4685998
20
-114.7738255
40
2
50
333.9641908
51
64.0000012
0
ARC
8
0
10
201.793326
20
-126.6986015
40
2
50
334.0000012
51
64.0000012
0
ARC
8
0
10
189.2756789
20
-161.4882695
40
2
50
154.0000012
51
168.0456615
0
ARC
8
0
10
204.780445
20
-188.0235666
40
2
50
27.7338716
51
38.999999
0
ARC
8
0
10
209.1890193
20
-196.4086158
40
2
50
19.000002
51
27.7338716
0
ARC
8
0
10
215.0003357
20
-213.2859038
40
2
50
289.000002
51
19.000002
0
ARC
8
0
10
184.5913726
20
-227.9870323
40
2
50
109.000002
51
191.096499
0
ARC
8
0
10
184.7856803
20
-228.9777474
40
2
50
191.096499
51
289.000002
0
ARC
8
0
10
222.3441912
20
-220.2757978
40
2
50
90
51
109.000002
0
ARC
8
0
10
237.0443334
20
-220.2757978
40
2
50
70.999998
51
90
0
ARC
8
0
10
274.6028443
20
-228.9777474
40
2
50
250.999998
51
348.903501
0
ARC
8
0
10
274.797152
20
-227.9870323
40
2
50
348.903501
51
70.999998
0
ARC
8
0
10
244.3881889
20
-213.2859038
40
2
50
160.999998
51
250.999998
0
ARC
8
0
10
250.1995053
20
-196.4086158
40
2
50
152.2661284
51
160.999998
0
ARC
8
0
10
254.6080796
20
-188.0235666
40
2
50
141.000001
51
152.2661284
0
ARC
8
0
10
270.2861315
20
-162.3067219
40
2
50
321.000001
51
11.9543385
0
ARC
8
0
10
257.5951986
20
-126.6986015
40
2
50
115.9999988
51
205.9999988
0
ARC
8
0
10
269.3247479
20
-116.5273103
40
2
50
295.9999988
51
26.0358092
0
ARC
8
0
10
286.6772347
20
-103.6135293
40
2
50
295.9999988
51
336.8058467
0
ARC
8
0
10
291.5469409
20
-102.4046499
40
2
50
110.9999979
51
156.8058467
0
ARC
8
0
10
308.5007268
20
-95.8967012
40
2
50
57.9807064
51
110.9999979
0
ARC
8
0
10
314.3685569
20
-94.84837
40
2
50
237.9807064
51
286.0000024
0
ARC
8
0
10
332.5938016
20
-93.783563
40
2
50
39.9962312
51
106.0000024
0
ARC
8
0
10
340.5988876
20
-97.1015446
40
2
50
219.9962312
51
280.0000008
0
ARC
8
0
10
357.8852375
20
-98.1152012
40
2
50
10.0000008
51
100.0000008
0
ARC
8
0
10
367.2626732
20
-151.2972819
40
2
50
280.0000008
51
10.0000008
0
ARC
8
0
10
351.5032871
20
-154.0760868
40
2
50
190.0000008
51
280.0000008
0
ARC
8
0
10
346.7341237
20
-150.0638989
40
2
50
10.0000008
51
106.0162748
0
ARC
8
0
10
331.4222288
20
-150.2976851
40
2
50
196.0000024
51
286.0162748
0
ARC
8
0
10
327.3625947
20
-150.6518796
40
2
50
16.0000024
51
112.024195
0
ARC
8
0
10
322.0519142
20
-152.800143
40
2
50
112.024195
51
175.0768719
0
ARC
8
0
10
321.6595521
20
-157.355241
40
2
50
175.0768719
51
211.0000013
0
ARC
8
0
10
337.5573388
20
-221.7823502
40
2
50
185.4809562
51
277.6778518
0
ARC
8
0
10
354.747735
20
-219.4648839
40
2
50
277.6778518
51
341.3912708
0
ARC
8
0
10
374.2072479
20
-161.6712302
40
2
50
341.3912708
51
5.7312011
0
ARC
8
0
10
367.6622408
20
-96.4580849
40
2
50
5.7312011
51
68.3644849
0
ARC
8
0
10
341.1140536
20
-85.9278743
40
2
50
68.3644849
51
88.178908
0
ARC
8
0
10
229.6942623
20
-82.3853074
40
2
50
88.178908
51
91.821092
0
ARC
8
0
10
118.274471
20
-85.9278743
40
2
50
91.821092
51
111.6355151
0
LINE
8
0
10
115.9669841
20
-166.682056
11
124.2815069
21
-171.6779254
0
LINE
8
0
10
124.2815069
20
-171.6779254
11
129.2773763
21
-163.3634026
0
LINE
8
0
10
129.2773763
20
-163.3634026
11
120.9628535
21
-158.3675332
0
LINE
8
0
10
120.9628535
20
-158.3675332
11
115.9669841
21
-166.682056
0
LINE
8
0
10
335.1070177
20
-171.6779254
11
343.4215405
21
-166.682056
0
LINE
8
0
10
343.4215405
20
-166.682056
11
338.4256711
21
-158.3675332
0
LINE
8
0
10
338.4256711
20
-158.3675332
11
330.1111483
21
-163.3634026
0
LINE
8
0
10
330.1111483
20
-163.3634026
11
335.1070177
21
-171.6779254
0
ENDSEC
0
EOF