0
SECTION
2
HEADER
9
$INSUNITS
70
4
0
ENDSEC
0
SECTION
2
TABLES
0
TABLE
2
LTYPE
0
LTYPE
72
65
70
64
2
CONTINUOUS
3
______
73
0
40
0
0
ENDTAB
0
TABLE
2
LAYER
0
ENDTAB
0
ENDSEC
0
SECTION
2
ENTITIES
0
LINE
8
0
10
93.4023222
20
-155.5827953
11
105.2200153
21
-157.6665734
0
LINE
8
0
10
105.2200153
20
-157.6665734
11
106.0882562
21
-152.7425347
0
LINE
8
0
10
106.0882562
20
-152.7425347
11
94.2705631
21
-150.6587566
0
LINE
8
0
10
94.2705631
20
-150.6587566
11
93.4023222
21
-155.5827953
0
LINE
8
0
10
96.7016376
20
-136.871448
11
108.5193307
21
-138.9552261
0
LINE
8
0
10
108.5193307
20
-138.9552261
11
109.3875716
21
-134.0311874
0
LINE
8
0
10
109.3875716
20
-134.0311874
11
97.5698785
21
-131.9474093
0
LINE
8
0
10
97.5698785
20
-131.9474093
11
96.7016376
21
-136.871448
0
LINE
8
0
10
100.000953
20
-118.1601007
11
111.8186461
21
-120.2438788
0
LINE
8
0
10
111.8186461
20
-120.2438788
11
112.686887
21
-115.3198401
0
LINE
8
0
10
112.686887
20
-115.3198401
11
100.8691939
21
-113.236062
0
LINE
8
0
10
100.8691939
20
-113.236062
11
100.000953
21
-118.1601007
0
LINE
8
0
10
113.4050689
20
-150.2828091
11
124.9402093
21
-153.5904574
0
LINE
8
0
10
124.9402093
20
-153.5904574
11
126.3183961
21
-148.7841489
0
LINE
8
0
10
126.3183961
20
-148.7841489
11
114.7832557
21
-145.4765006
0
LINE
8
0
10
114.7832557
20
-145.4765006
11
113.4050689
21
-150.2828091
0
LINE
8
0
10
118.6421787
20
-132.0188369
11
130.1773191
21
-135.3264852
0
LINE
8
0
10
130.1773191
20
-135.3264852
11
131.5555059
21
-130.5201767
0
LINE
8
0
10
131.5555059
20
-130.5201767
11
120.0203655
21
-127.2125284
0
LINE
8
0
10
120.0203655
20
-127.2125284
11
118.6421787
21
-132.0188369
0
LINE
8
0
10
123.8792884
20
-113.7548646
11
135.4144288
21
-117.0625129
0
LINE
8
0
10
135.4144288
20
-117.0625129
11
136.7926156
21
-112.2562044
0
LINE
8
0
10
136.7926156
20
-112.2562044
11
125.2574752
21
-108.9485561
0
LINE
8
0
10
125.2574752
20
-108.9485561
11
123.8792884
21
-113.7548646
0
LINE
8
0
10
132.9061729
20
-151.1219507
11
144.109138
21
-155.4223661
0
LINE
8
0
10
144.109138
20
-155.4223661
11
145.9009777
21
-150.7544639
0
LINE
8
0
10
145.9009777
20
-150.7544639
11
134.6980126
21
-146.4540485
0
LINE
8
0
10
134.6980126
20
-146.4540485
11
132.9061729
21
-151.1219507
0
LINE
8
0
10
139.7151639
20
-133.3839226
11
150.918129
21
-137.684338
0
LINE
8
0
10
150.918129
20
-137.684338
11
152.7099687
21
-133.0164358
0
LINE
8
0
10
152.7099687
20
-133.0164358
11
141.5070036
21
-128.7160204
0
LINE
8
0
10
141.5070036
20
-128.7160204
11
139.7151639
21
-133.3839226
0
LINE
8
0
10
146.5241549
20
-115.6458945
11
157.72712
21
-119.9463099
0
LINE
8
0
10
157.72712
20
-119.9463099
11
159.5189597
21
-115.2784077
0
LINE
8
0
10
159.5189597
20
-115.2784077
11
148.3159946
21
-110.9779923
0
LINE
8
0
10
148.3159946
20
-110.9779923
11
146.5241549
21
-115.6458945
0
LINE
8
0
10
148.459409
20
-160.7678076
11
159.2449375
21
-166.0282614
0
LINE
8
0
10
159.2449375
20
-166.0282614
11
161.4367932
21
-161.5342912
0
LINE
8
0
10
161.4367932
20
-161.5342912
11
150.6512647
21
-156.2738374
0
LINE
8
0
10
150.6512647
20
-156.2738374
11
148.459409
21
-160.7678076
0
LINE
8
0
10
156.7884608
20
-143.6907208
11
167.5739893
21
-148.9511746
0
LINE
8
0
10
167.5739893
20
-148.9511746
11
169.765845
21
-144.4572044
0
LINE
8
0
10
169.765845
20
-144.4572044
11
158.9803165
21
-139.1967506
0
LINE
8
0
10
158.9803165
20
-139.1967506
11
156.7884608
21
-143.6907208
0
LINE
8
0
10
165.1175126
20
-126.6136339
11
175.9030411
21
-131.8740877
0
LINE
8
0
10
175.9030411
20
-131.8740877
11
178.0948968
21
-127.3801175
0
LINE
8
0
10
178.0948968
20
-127.3801175
11
167.3093683
21
-122.1196637
0
LINE
8
0
10
167.3093683
20
-122.1196637
11
165.1175126
21
-126.6136339
0
LINE
8
0
10
163.7830114
20
-172.6920356
11
174.5685399
21
-177.9524894
0
LINE
8
0
10
174.5685399
20
-177.9524894
11
176.7603956
21
-173.4585192
0
LINE
8
0
10
176.7603956
20
-173.4585192
11
165.9748671
21
-168.1980654
0
LINE
8
0
10
165.9748671
20
-168.1980654
11
163.7830114
21
-172.6920356
0
LINE
8
0
10
172.1120632
20
-155.6149487
11
182.8975917
21
-160.8754025
0
LINE
8
0
10
182.8975917
20
-160.8754025
11
185.0894474
21
-156.3814323
0
LINE
8
0
10
185.0894474
20
-156.3814323
11
174.3039189
21
-151.1209785
0
LINE
8
0
10
174.3039189
20
-151.1209785
11
172.1120632
21
-155.6149487
0
LINE
8
0
10
180.441115
20
-138.5378618
11
191.2266435
21
-143.7983156
0
LINE
8
0
10
191.2266435
20
-143.7983156
11
193.4184992
21
-139.3043454
0
LINE
8
0
10
193.4184992
20
-139.3043454
11
182.6329707
21
-134.0438916
0
LINE
8
0
10
182.6329707
20
-134.0438916
11
180.441115
21
-138.5378618
0
LINE
8
0
10
354.1685093
20
-157.6665734
11
365.9862024
21
-155.5827953
0
LINE
8
0
10
365.9862024
20
-155.5827953
11
365.1179615
21
-150.6587566
0
LINE
8
0
10
365.1179615
20
-150.6587566
11
353.3002684
21
-152.7425347
0
LINE
8
0
10
353.3002684
20
-152.7425347
11
354.1685093
21
-157.6665734
0
LINE
8
0
10
350.8691939
20
-138.9552261
11
362.686887
21
-136.871448
0
LINE
8
0
10
362.686887
20
-136.871448
11
361.8186461
21
-131.9474093
0
LINE
8
0
10
361.8186461
20
-131.9474093
11
350.000953
21
-134.0311874
0
LINE
8
0
10
350.000953
20
-134.0311874
11
350.8691939
21
-138.9552261
0
LINE
8
0
10
347.5698785
20
-120.2438788
11
359.3875716
21
-118.1601007
0
LINE
8
0
10
359.3875716
20
-118.1601007
11
358.5193307
21
-113.236062
0
LINE
8
0
10
358.5193307
20
-113.236062
11
346.7016376
21
-115.3198401
0
LINE
8
0
10
346.7016376
20
-115.3198401
11
347.5698785
21
-120.2438788
0
LINE
8
0
10
334.4483153
20
-153.5904574
11
345.9834557
21
-150.2828091
0
LINE
8
0
10
345.9834557
20
-150.2828091
11
344.6052689
21
-145.4765006
0
LINE
8
0
10
344.6052689
20
-145.4765006
11
333.0701285
21
-148.7841489
0
LINE
8
0
10
333.0701285
20
-148.7841489
11
334.4483153
21
-153.5904574
0
LINE
8
0
10
329.2112055
20
-135.3264852
11
340.7463459
21
-132.0188369
0
LINE
8
0
10
340.7463459
20
-132.0188369
11
339.3681591
21
-127.2125284
0
LINE
8
0
10
339.3681591
20
-127.2125284
11
327.8330187
21
-130.5201767
0
LINE
8
0
10
327.8330187
20
-130.5201767
11
329.2112055
21
-135.3264852
0
LINE
8
0
10
323.9740958
20
-117.0625129
11
335.5092362
21
-113.7548646
0
LINE
8
0
10
335.5092362
20
-113.7548646
11
334.1310494
21
-108.9485561
0
LINE
8
0
10
334.1310494
20
-108.9485561
11
322.595909
21
-112.2562044
0
LINE
8
0
10
322.595909
20
-112.2562044
11
323.9740958
21
-117.0625129
0
LINE
8
0
10
315.2793866
20
-155.4223661
11
326.4823517
21
-151.1219507
0
LINE
8
0
10
326.4823517
20
-151.1219507
11
324.690512
21
-146.4540485
0
LINE
8
0
10
324.690512
20
-146.4540485
11
313.4875469
21
-150.7544639
0
LINE
8
0
10
313.4875469
20
-150.7544639
11
315.2793866
21
-155.4223661
0
LINE
8
0
10
308.4703956
20
-137.684338
11
319.6733607
21
-133.3839226
0
LINE
8
0
10
319.6733607
20
-133.3839226
11
317.881521
21
-128.7160204
0
LINE
8
0
10
317.881521
20
-128.7160204
11
306.6785559
21
-133.0164358
0
LINE
8
0
10
306.6785559
20
-133.0164358
11
308.4703956
21
-137.684338
0
LINE
8
0
10
301.6614046
20
-119.9463099
11
312.8643697
21
-115.6458945
0
LINE
8
0
10
312.8643697
20
-115.6458945
11
311.07253
21
-110.9779923
0
LINE
8
0
10
311.07253
20
-110.9779923
11
299.8695649
21
-115.2784077
0
LINE
8
0
10
299.8695649
20
-115.2784077
11
301.6614046
21
-119.9463099
0
LINE
8
0
10
300.1435871
20
-166.0282614
11
310.9291156
21
-160.7678076
0
LINE
8
0
10
310.9291156
20
-160.7678076
11
308.7372599
21
-156.2738374
0
LINE
8
0
10
308.7372599
20
-156.2738374
11
297.9517314
21
-161.5342912
0
LINE
8
0
10
297.9517314
20
-161.5342912
11
300.1435871
21
-166.0282614
0
LINE
8
0
10
291.8145353
20
-148.9511746
11
302.6000638
21
-143.6907208
0
LINE
8
0
10
302.6000638
20
-143.6907208
11
300.4082081
21
-139.1967506
0
LINE
8
0
10
300.4082081
20
-139.1967506
11
289.6226796
21
-144.4572044
0
LINE
8
0
10
289.6226796
20
-144.4572044
11
291.8145353
21
-148.9511746
0
LINE
8
0
10
283.4854835
20
-131.8740877
11
294.271012
21
-126.6136339
0
LINE
8
0
10
294.271012
20
-126.6136339
11
292.0791563
21
-122.1196637
0
LINE
8
0
10
292.0791563
20
-122.1196637
11
281.2936278
21
-127.3801175
0
LINE
8
0
10
281.2936278
20
-127.3801175
11
283.4854835
21
-131.8740877
0
LINE
8
0
10
284.8199847
20
-177.9524894
11
295.6055132
21
-172.6920356
0
LINE
8
0
10
295.6055132
20
-172.6920356
11
293.4136575
21
-168.1980654
0
LINE
8
0
10
293.4136575
20
-168.1980654
11
282.628129
21
-173.4585192
0
LINE
8
0
10
282.628129
20
-173.4585192
11
284.8199847
21
-177.9524894
0
LINE
8
0
10
276.4909329
20
-160.8754025
11
287.2764614
21
-155.6149487
0
LINE
8
0
10
287.2764614
20
-155.6149487
11
285.0846057
21
-151.1209785
0
LINE
8
0
10
285.0846057
20
-151.1209785
11
274.2990772
21
-156.3814323
0
LINE
8
0
10
274.2990772
20
-156.3814323
11
276.4909329
21
-160.8754025
0
LINE
8
0
10
268.1618811
20
-143.7983156
11
278.9474096
21
-138.5378618
0
LINE
8
0
10
278.9474096
20
-138.5378618
11
276.7555539
21
-134.0438916
0
LINE
8
0
10
276.7555539
20
-134.0438916
11
265.9700254
21
-139.3043454
0
LINE
8
0
10
265.9700254
20
-139.3043454
11
268.1618811
21
-143.7983156
0
LINE
8
0
10
177.1335635
20
-180.1032571
11
167.807812
21
-187.6551017
0
LINE
8
0
10
167.807812
20
-187.6551017
11
170.9544139
21
-191.5408315
0
LINE
8
0
10
170.9544139
20
-191.5408315
11
180.2801654
21
-183.9889869
0
LINE
8
0
10
180.2801654
20
-183.9889869
11
177.1335635
21
-180.1032571
0
LINE
8
0
10
193.0491113
20
-200.2193912
11
181.7028884
21
-204.1262091
0
LINE
8
0
10
181.7028884
20
-204.1262091
11
183.3307291
21
-208.853802
0
LINE
8
0
10
183.3307291
20
-208.853802
11
194.676952
21
-204.9469841
0
LINE
8
0
10
194.676952
20
-204.9469841
11
193.0491113
21
-200.2193912
0
LINE
8
0
10
138.7494311
20
-156.6301417
11
132.5689742
21
-166.9161493
0
LINE
8
0
10
132.5689742
20
-166.9161493
11
136.8548107
21
-169.4913397
0
LINE
8
0
10
136.8548107
20
-169.4913397
11
143.0352676
21
-159.2053321
0
LINE
8
0
10
143.0352676
20
-159.2053321
11
138.7494311
21
-156.6301417
0
LINE
8
0
10
155.0356098
20
-166.4158651
11
148.8551529
21
-176.7018727
0
LINE
8
0
10
148.8551529
20
-176.7018727
11
153.1409894
21
-179.2770631
0
LINE
8
0
10
153.1409894
20
-179.2770631
11
159.3214463
21
-168.9910555
0
LINE
8
0
10
159.3214463
20
-168.9910555
11
155.0356098
21
-166.4158651
0
LINE
8
0
10
291.5807126
20
-187.6551017
11
282.2549611
21
-180.1032571
0
LINE
8
0
10
282.2549611
20
-180.1032571
11
279.1083592
21
-183.9889869
0
LINE
8
0
10
279.1083592
20
-183.9889869
11
288.4341107
21
-191.5408315
0
LINE
8
0
10
288.4341107
20
-191.5408315
11
291.5807126
21
-187.6551017
0
LINE
8
0
10
277.6856362
20
-204.1262091
11
266.3394133
21
-200.2193912
0
LINE
8
0
10
266.3394133
20
-200.2193912
11
264.7115726
21
-204.9469841
0
LINE
8
0
10
264.7115726
20
-204.9469841
11
276.0577955
21
-208.853802
0
LINE
8
0
10
276.0577955
20
-208.853802
11
277.6856362
21
-204.1262091
0
LINE
8
0
10
326.8195504
20
-166.9161493
11
320.6390935
21
-156.6301417
0
LINE
8
0
10
320.6390935
20
-156.6301417
11
316.353257
21
-159.2053321
0
LINE
8
0
10
316.353257
20
-159.2053321
11
322.5337139
21
-169.4913397
0
LINE
8
0
10
322.5337139
20
-169.4913397
11
326.8195504
21
-166.9161493
0
LINE
8
0
10
310.5333717
20
-176.7018727
11
304.3529148
21
-166.4158651
0
LINE
8
0
10
304.3529148
20
-166.4158651
11
300.0670783
21
-168.9910555
0
LINE
8
0
10
300.0670783
20
-168.9910555
11
306.2475352
21
-179.2770631
0
LINE
8
0
10
306.2475352
20
-179.2770631
11
310.5333717
21
-176.7018727
0
LINE
8
0
10
193.6679861
20
-176.6863324
11
201.2198307
21
-186.0120839
0
LINE
8
0
10
201.2198307
20
-186.0120839
11
205.1055605
21
-182.865482
0
LINE
8
0
10
205.1055605
20
-182.865482
11
197.5537159
21
-173.5397305
0
LINE
8
0
10
197.5537159
20
-173.5397305
11
193.6679861
21
-176.6863324
0
LINE
8
0
10
209.0225147
20
-200.5362211
11
212.9293326
21
-211.882444
0
LINE
8
0
10
212.9293326
20
-211.882444
11
217.6569255
21
-210.2546033
0
LINE
8
0
10
217.6569255
20
-210.2546033
11
213.7501076
21
-198.9083804
0
LINE
8
0
10
213.7501076
20
-198.9083804
11
209.0225147
21
-200.5362211
0
LINE
8
0
10
258.1686939
20
-186.0120839
11
265.7205385
21
-176.6863324
0
LINE
8
0
10
265.7205385
20
-176.6863324
11
261.8348087
21
-173.5397305
0
LINE
8
0
10
261.8348087
20
-173.5397305
11
254.2829641
21
-182.865482
0
LINE
8
0
10
254.2829641
20
-182.865482
11
258.1686939
21
-186.0120839
0
LINE
8
0
10
246.459192
20
-211.882444
11
250.3660099
21
-200.5362211
0
LINE
8
0
10
250.3660099
20
-200.5362211
11
245.638417
21
-198.9083804
0
LINE
8
0
10
245.638417
20
-198.9083804
11
241.7315991
21
-210.2546033
0
LINE
8
0
10
241.7315991
20
-210.2546033
11
246.459192
21
-211.882444
0
ENDSEC
0
EOF