0
SECTION
2
HEADER
9
$INSUNITS
70
4
0
ENDSEC
0
SECTION
2
TABLES
0
TABLE
2
LTYPE
0
LTYPE
72
65
70
64
2
CONTINUOUS
3
______
73
0
40
0
0
ENDTAB
0
TABLE
2
LAYER
0
ENDTAB
0
ENDSEC
0
SECTION
2
ENTITIES
0
LINE
8
0
10
117.8617747
20
-83.9399852
11
89.8577942
21
-95.0476292
0
LINE
8
0
10
89.8577942
20
-95.0476292
11
83.1482019
21
-161.9006687
0
LINE
8
0
10
83.1482019
20
-161.9006687
11
103.1419304
21
-221.2809125
0
LINE
8
0
10
103.1419304
20
-221.2809125
11
182.2927616
21
-231.9513695
0
LINE
8
0
10
182.2927616
20
-231.9513695
11
222.0095058
21
-218.2757978
0
LINE
8
0
10
222.0095058
20
-218.2757978
11
237.3790188
21
-218.2757978
0
LINE
8
0
10
237.3790188
20
-218.2757978
11
277.095763
21
-231.9513695
0
LINE
8
0
10
277.095763
20
-231.9513695
11
356.2465942
21
-221.2809125
0
LINE
8
0
10
356.2465942
20
-221.2809125
11
376.2403227
21
-161.9006687
0
LINE
8
0
10
376.2403227
20
-161.9006687
11
369.5307304
21
-95.0476292
0
LINE
8
0
10
369.5307304
20
-95.0476292
11
341.5267499
21
-83.9399852
0
LINE
8
0
10
341.5267499
20
-83.9399852
11
229.6942623
21
-80.3842967
0
LINE
8
0
10
229.6942623
20
-80.3842967
11
185.0228373
21
-81.8046145
0
LINE
8
0
10
146.8273037
20
-83.0190328
11
117.8617747
21
-83.9399852
0
LINE
8
0
10
93.2857554
20
-150.4851083
11
107.0730639
21
-152.9161828
0
LINE
8
0
10
107.0730639
20
-152.9161828
11
109.5041384
21
-139.1288743
0
LINE
8
0
10
95.7168299
20
-136.6977998
11
109.5041384
21
-139.1288743
0
LINE
8
0
10
95.7168299
20
-136.6977998
11
93.2857554
21
-150.4851083
0
LINE
8
0
10
96.5850708
20
-131.773761
11
110.3723793
21
-134.2048355
0
LINE
8
0
10
110.3723793
20
-134.2048355
11
112.8034538
21
-120.417527
0
LINE
8
0
10
99.0161453
20
-117.9864525
11
112.8034538
21
-120.417527
0
LINE
8
0
10
99.0161453
20
-117.9864525
11
96.5850708
21
-131.773761
0
LINE
8
0
10
99.8843862
20
-113.0624137
11
113.6716947
21
-115.4934882
0
LINE
8
0
10
113.6716947
20
-115.4934882
11
116.1027692
21
-101.7061797
0
LINE
8
0
10
116.1027692
20
-101.7061797
11
102.3154607
21
-99.2751052
0
LINE
8
0
10
99.8843862
20
-113.0624137
11
102.3154607
21
-99.2751052
0
LINE
8
0
10
113.821994
20
-145.2008633
11
127.2796578
21
-149.0597863
0
LINE
8
0
10
127.2796578
20
-149.0597863
11
131.1385808
21
-135.6021225
0
LINE
8
0
10
117.680917
20
-131.7431995
11
131.1385808
21
-135.6021225
0
LINE
8
0
10
117.680917
20
-131.7431995
11
113.821994
21
-145.2008633
0
LINE
8
0
10
119.0591038
20
-126.9368911
11
132.5167676
21
-130.7958141
0
LINE
8
0
10
132.5167676
20
-130.7958141
11
136.3756906
21
-117.3381503
0
LINE
8
0
10
122.9180268
20
-113.4792273
11
136.3756906
21
-117.3381503
0
LINE
8
0
10
122.9180268
20
-113.4792273
11
119.0591038
21
-126.9368911
0
LINE
8
0
10
124.2962135
20
-108.6729188
11
137.7538773
21
-112.5318418
0
LINE
8
0
10
137.7538773
20
-112.5318418
11
141.6128003
21
-99.074178
0
LINE
8
0
10
141.6128003
20
-99.074178
11
128.1551365
21
-95.215255
0
LINE
8
0
10
128.1551365
20
-95.215255
11
124.2962135
21
-108.6729188
0
LINE
8
0
10
133.7644322
20
-146.0956805
11
146.8345581
21
-151.1128318
0
LINE
8
0
10
146.8345581
20
-151.1128318
11
151.8517094
21
-138.0427059
0
LINE
8
0
10
138.7815835
20
-133.0255546
11
151.8517094
21
-138.0427059
0
LINE
8
0
10
138.7815835
20
-133.0255546
11
133.7644322
21
-146.0956805
0
LINE
8
0
10
140.5734232
20
-128.3576524
11
153.6435491
21
-133.3748037
0
LINE
8
0
10
153.6435491
20
-133.3748037
11
158.6607004
21
-120.3046778
0
LINE
8
0
10
145.5905745
20
-115.2875265
11
158.6607004
21
-120.3046778
0
LINE
8
0
10
145.5905745
20
-115.2875265
11
140.5734232
21
-128.3576524
0
LINE
8
0
10
147.3824142
20
-110.6196243
11
160.4525401
21
-115.6367756
0
LINE
8
0
10
160.4525401
20
-115.6367756
11
165.4696914
21
-102.5666497
0
LINE
8
0
10
165.4696914
20
-102.5666497
11
152.3995655
21
-97.5494984
0
LINE
8
0
10
152.3995655
20
-97.5494984
11
147.3824142
21
-110.6196243
0
LINE
8
0
10
149.7524706
20
-155.8354663
11
162.3355873
21
-161.9726624
0
LINE
8
0
10
162.3355873
20
-161.9726624
11
168.4727834
21
-149.3895457
0
LINE
8
0
10
155.8896667
20
-143.2523496
11
168.4727834
21
-149.3895457
0
LINE
8
0
10
155.8896667
20
-143.2523496
11
149.7524706
21
-155.8354663
0
LINE
8
0
10
158.0815224
20
-138.7583795
11
170.6646391
21
-144.8955756
0
LINE
8
0
10
170.6646391
20
-144.8955756
11
176.8018352
21
-132.3124589
0
LINE
8
0
10
164.2187185
20
-126.1752628
11
176.8018352
21
-132.3124589
0
LINE
8
0
10
164.2187185
20
-126.1752628
11
158.0815224
21
-138.7583795
0
LINE
8
0
10
166.4105742
20
-121.6812926
11
178.9936909
21
-127.8184887
0
LINE
8
0
10
178.9936909
20
-127.8184887
11
185.130887
21
-115.235372
0
LINE
8
0
10
185.130887
20
-115.235372
11
172.5477703
21
-109.0981759
0
LINE
8
0
10
172.5477703
20
-109.0981759
11
166.4105742
21
-121.6812926
0
LINE
8
0
10
165.076073
20
-167.7596943
11
177.6591897
21
-173.8968904
0
LINE
8
0
10
177.6591897
20
-173.8968904
11
183.7963858
21
-161.3137737
0
LINE
8
0
10
171.2132691
20
-155.1765776
11
183.7963858
21
-161.3137737
0
LINE
8
0
10
171.2132691
20
-155.1765776
11
165.076073
21
-167.7596943
0
LINE
8
0
10
173.4051248
20
-150.6826074
11
185.9882415
21
-156.8198035
0
LINE
8
0
10
185.9882415
20
-156.8198035
11
192.1254376
21
-144.2366868
0
LINE
8
0
10
179.5423209
20
-138.0994907
11
192.1254376
21
-144.2366868
0
LINE
8
0
10
179.5423209
20
-138.0994907
11
173.4051248
21
-150.6826074
0
LINE
8
0
10
181.7341766
20
-133.6055205
11
194.3172933
21
-139.7427166
0
LINE
8
0
10
194.3172933
20
-139.7427166
11
200.4544894
21
-127.1595999
0
LINE
8
0
10
200.4544894
20
-127.1595999
11
187.8713727
21
-121.0224038
0
LINE
8
0
10
187.8713727
20
-121.0224038
11
181.7341766
21
-133.6055205
0
LINE
8
0
10
166.3654509
20
-194.6135207
11
175.1759364
21
-205.4935642
0
LINE
8
0
10
175.1759364
20
-205.4935642
11
186.0559799
21
-196.6830787
0
LINE
8
0
10
186.0559799
20
-196.6830787
11
177.5601546
21
-186.1916082
0
LINE
8
0
10
170.6397537
20
-191.1522585
11
166.3654509
21
-194.6135207
0
LINE
8
0
10
182.5471951
20
-184.4050117
11
191.3576806
21
-195.2850552
0
LINE
8
0
10
191.3576806
20
-195.2850552
11
202.2377241
21
-186.4745697
0
LINE
8
0
10
202.2377241
20
-186.4745697
11
201.6084037
21
-185.6974237
0
LINE
8
0
10
194.056559
20
-176.3716722
11
193.4272386
21
-175.5945262
0
LINE
8
0
10
193.4272386
20
-175.5945262
11
182.5471951
21
-184.4050117
0
LINE
8
0
10
177.9675929
20
-210.1716676
11
182.5255471
21
-223.4089276
0
LINE
8
0
10
182.5255471
20
-223.4089276
11
195.7628071
21
-218.8509734
0
LINE
8
0
10
195.7628071
20
-218.8509734
11
191.367637
21
-206.0864727
0
LINE
8
0
10
183.167945
20
-208.3810427
11
177.9675929
21
-210.1716676
0
LINE
8
0
10
195.9324458
20
-203.9858727
11
200.4904
21
-217.2231327
0
LINE
8
0
10
200.4904
20
-217.2231327
11
213.72766
21
-212.6651785
0
LINE
8
0
10
213.72766
20
-212.6651785
11
213.4020918
21
-211.7196599
0
LINE
8
0
10
209.4952739
20
-200.373437
11
209.1697058
21
-199.4279185
0
LINE
8
0
10
209.1697058
20
-199.4279185
11
195.9324458
21
-203.9858727
0
LINE
8
0
10
133.5935177
20
-173.9482408
11
145.5938599
21
-181.1587738
0
LINE
8
0
10
145.5938599
20
-181.1587738
11
152.8043929
21
-169.1584316
0
LINE
8
0
10
152.8043929
20
-169.1584316
11
141.2326343
21
-162.2054176
0
LINE
8
0
10
136.4262271
20
-169.2338207
11
133.5935177
21
-173.9482408
0
LINE
8
0
10
149.8796964
20
-183.7339642
11
161.8800386
21
-190.9444972
0
LINE
8
0
10
161.8800386
20
-190.9444972
11
169.0905716
21
-178.944155
0
LINE
8
0
10
169.0905716
20
-178.944155
11
157.518813
21
-171.991141
0
LINE
8
0
10
152.7124058
20
-179.0195441
11
149.8796964
21
-183.7339642
0
LINE
8
0
10
352.3154607
20
-152.9161828
11
366.1027692
21
-150.4851083
0
LINE
8
0
10
366.1027692
20
-150.4851083
11
363.6716947
21
-136.6977998
0
LINE
8
0
10
349.8843862
20
-139.1288743
11
363.6716947
21
-136.6977998
0
LINE
8
0
10
349.8843862
20
-139.1288743
11
352.3154607
21
-152.9161828
0
LINE
8
0
10
349.0161453
20
-134.2048355
11
362.8034538
21
-131.773761
0
LINE
8
0
10
362.8034538
20
-131.773761
11
360.3723793
21
-117.9864525
0
LINE
8
0
10
346.5850708
20
-120.417527
11
360.3723793
21
-117.9864525
0
LINE
8
0
10
346.5850708
20
-120.417527
11
349.0161453
21
-134.2048355
0
LINE
8
0
10
345.7168299
20
-115.4934882
11
359.5041384
21
-113.0624137
0
LINE
8
0
10
357.0730639
20
-99.2751052
11
359.5041384
21
-113.0624137
0
LINE
8
0
10
357.0730639
20
-99.2751052
11
343.2857554
21
-101.7061797
0
LINE
8
0
10
343.2857554
20
-101.7061797
11
345.7168299
21
-115.4934882
0
LINE
8
0
10
332.1088668
20
-149.0597863
11
345.5665306
21
-145.2008633
0
LINE
8
0
10
345.5665306
20
-145.2008633
11
341.7076076
21
-131.7431995
0
LINE
8
0
10
328.2499438
20
-135.6021225
11
341.7076076
21
-131.7431995
0
LINE
8
0
10
328.2499438
20
-135.6021225
11
332.1088668
21
-149.0597863
0
LINE
8
0
10
326.871757
20
-130.7958141
11
340.3294208
21
-126.9368911
0
LINE
8
0
10
340.3294208
20
-126.9368911
11
336.4704978
21
-113.4792273
0
LINE
8
0
10
323.012834
20
-117.3381503
11
336.4704978
21
-113.4792273
0
LINE
8
0
10
323.012834
20
-117.3381503
11
326.871757
21
-130.7958141
0
LINE
8
0
10
321.6346473
20
-112.5318418
11
335.0923111
21
-108.6729188
0
LINE
8
0
10
335.0923111
20
-108.6729188
11
331.2333881
21
-95.215255
0
LINE
8
0
10
331.2333881
20
-95.215255
11
317.7757243
21
-99.074178
0
LINE
8
0
10
317.7757243
20
-99.074178
11
321.6346473
21
-112.5318418
0
LINE
8
0
10
312.5539665
20
-151.1128318
11
325.6240924
21
-146.0956805
0
LINE
8
0
10
325.6240924
20
-146.0956805
11
320.6069411
21
-133.0255546
0
LINE
8
0
10
307.5368152
20
-138.0427059
11
320.6069411
21
-133.0255546
0
LINE
8
0
10
307.5368152
20
-138.0427059
11
312.5539665
21
-151.1128318
0
LINE
8
0
10
305.7449755
20
-133.3748037
11
318.8151014
21
-128.3576524
0
LINE
8
0
10
318.8151014
20
-128.3576524
11
313.7979501
21
-115.2875265
0
LINE
8
0
10
300.7278242
20
-120.3046778
11
313.7979501
21
-115.2875265
0
LINE
8
0
10
300.7278242
20
-120.3046778
11
305.7449755
21
-133.3748037
0
LINE
8
0
10
298.9359845
20
-115.6367756
11
312.0061104
21
-110.6196243
0
LINE
8
0
10
312.0061104
20
-110.6196243
11
306.9889591
21
-97.5494984
0
LINE
8
0
10
306.9889591
20
-97.5494984
11
293.9188332
21
-102.5666497
0
LINE
8
0
10
293.9188332
20
-102.5666497
11
298.9359845
21
-115.6367756
0
LINE
8
0
10
297.0529373
20
-161.9726624
11
309.636054
21
-155.8354663
0
LINE
8
0
10
309.636054
20
-155.8354663
11
303.4988579
21
-143.2523496
0
LINE
8
0
10
290.9157412
20
-149.3895457
11
303.4988579
21
-143.2523496
0
LINE
8
0
10
290.9157412
20
-149.3895457
11
297.0529373
21
-161.9726624
0
LINE
8
0
10
288.7238855
20
-144.8955756
11
301.3070022
21
-138.7583795
0
LINE
8
0
10
301.3070022
20
-138.7583795
11
295.1698061
21
-126.1752628
0
LINE
8
0
10
282.5866894
20
-132.3124589
11
295.1698061
21
-126.1752628
0
LINE
8
0
10
282.5866894
20
-132.3124589
11
288.7238855
21
-144.8955756
0
LINE
8
0
10
280.3948337
20
-127.8184887
11
292.9779504
21
-121.6812926
0
LINE
8
0
10
292.9779504
20
-121.6812926
11
286.8407543
21
-109.0981759
0
LINE
8
0
10
286.8407543
20
-109.0981759
11
274.2576376
21
-115.235372
0
LINE
8
0
10
274.2576376
20
-115.235372
11
280.3948337
21
-127.8184887
0
LINE
8
0
10
281.7293349
20
-173.8968904
11
294.3124516
21
-167.7596943
0
LINE
8
0
10
294.3124516
20
-167.7596943
11
288.1752555
21
-155.1765776
0
LINE
8
0
10
275.5921388
20
-161.3137737
11
288.1752555
21
-155.1765776
0
LINE
8
0
10
275.5921388
20
-161.3137737
11
281.7293349
21
-173.8968904
0
LINE
8
0
10
273.4002831
20
-156.8198035
11
285.9833998
21
-150.6826074
0
LINE
8
0
10
285.9833998
20
-150.6826074
11
279.8462037
21
-138.0994907
0
LINE
8
0
10
267.263087
20
-144.2366868
11
279.8462037
21
-138.0994907
0
LINE
8
0
10
267.263087
20
-144.2366868
11
273.4002831
21
-156.8198035
0
LINE
8
0
10
265.0712313
20
-139.7427166
11
277.654348
21
-133.6055205
0
LINE
8
0
10
277.654348
20
-133.6055205
11
271.5171519
21
-121.0224038
0
LINE
8
0
10
271.5171519
20
-121.0224038
11
258.9340352
21
-127.1595999
0
LINE
8
0
10
258.9340352
20
-127.1595999
11
265.0712313
21
-139.7427166
0
LINE
8
0
10
284.2125882
20
-205.4935642
11
293.0230737
21
-194.6135207
0
LINE
8
0
10
293.0230737
20
-194.6135207
11
288.7487709
21
-191.1522585
0
LINE
8
0
10
281.82837
20
-186.1916082
11
273.3325447
21
-196.6830787
0
LINE
8
0
10
273.3325447
20
-196.6830787
11
284.2125882
21
-205.4935642
0
LINE
8
0
10
268.030844
20
-195.2850552
11
276.8413295
21
-184.4050117
0
LINE
8
0
10
276.8413295
20
-184.4050117
11
265.961286
21
-175.5945262
0
LINE
8
0
10
265.961286
20
-175.5945262
11
265.3319656
21
-176.3716722
0
LINE
8
0
10
257.7801209
20
-185.6974237
11
257.1508005
21
-186.4745697
0
LINE
8
0
10
257.1508005
20
-186.4745697
11
268.030844
21
-195.2850552
0
LINE
8
0
10
276.8629775
20
-223.4089276
11
281.4209317
21
-210.1716676
0
LINE
8
0
10
281.4209317
20
-210.1716676
11
276.2205796
21
-208.3810427
0
LINE
8
0
10
268.0208876
20
-206.0864727
11
263.6257175
21
-218.8509734
0
LINE
8
0
10
263.6257175
20
-218.8509734
11
276.8629775
21
-223.4089276
0
LINE
8
0
10
258.8981246
20
-217.2231327
11
263.4560788
21
-203.9858727
0
LINE
8
0
10
263.4560788
20
-203.9858727
11
250.2188188
21
-199.4279185
0
LINE
8
0
10
250.2188188
20
-199.4279185
11
249.8932507
21
-200.373437
0
LINE
8
0
10
245.9864328
20
-211.7196599
11
245.6608646
21
-212.6651785
0
LINE
8
0
10
245.6608646
20
-212.6651785
11
258.8981246
21
-217.2231327
0
LINE
8
0
10
313.7946647
20
-181.1587738
11
325.7950069
21
-173.9482408
0
LINE
8
0
10
325.7950069
20
-173.9482408
11
322.9622975
21
-169.2338207
0
LINE
8
0
10
318.1558903
20
-162.2054176
11
306.5841317
21
-169.1584316
0
LINE
8
0
10
306.5841317
20
-169.1584316
11
313.7946647
21
-181.1587738
0
LINE
8
0
10
297.508486
20
-190.9444972
11
309.5088282
21
-183.7339642
0
LINE
8
0
10
309.5088282
20
-183.7339642
11
306.6761188
21
-179.0195441
0
LINE
8
0
10
301.8697116
20
-171.991141
11
290.297953
21
-178.944155
0
LINE
8
0
10
290.297953
20
-178.944155
11
297.508486
21
-190.9444972
0
LINE
8
0
10
211.0856555
20
-116.7683391
11
218.9763361
21
-100.5900462
0
ARC
8
0
10
218.0775421
20
-100.1516751
40
1
50
334
51
64
0
LINE
8
0
10
218.5159132
20
-99.252881
11
189.7545038
21
-85.2250044
0
LINE
8
0
10
176.010636
20
-97.4359051
11
175.1338937
21
-99.2334932
0
ARC
8
0
10
176.0326877
20
-99.6718643
40
1
50
154
51
244
0
LINE
8
0
10
175.5943166
20
-100.5706584
11
209.7484903
21
-117.228762
0
ARC
8
0
10
210.1868615
20
-116.3299679
40
1
50
244
51
334
0
ARC
8
0
10
188.8557098
20
-84.7866332
40
1
50
334
51
64
0
LINE
8
0
10
189.2940809
20
-83.8878392
11
185.0228373
21
-81.8046145
0
ARC
8
0
10
147.6875976
20
-82.5092344
40
1
50
210.6504022
51
244
0
LINE
8
0
10
147.2492265
20
-83.4080284
11
176.010636
21
-97.4359051
0
LINE
8
0
10
93.4023222
20
-155.5827953
11
105.2200153
21
-157.6665734
0
LINE
8
0
10
105.2200153
20
-157.6665734
11
106.0882562
21
-152.7425347
0
LINE
8
0
10
94.2705631
20
-150.6587566
11
93.4023222
21
-155.5827953
0
LINE
8
0
10
108.5193307
20
-138.9552261
11
109.3875716
21
-134.0311874
0
LINE
8
0
10
97.5698785
20
-131.9474093
11
96.7016376
21
-136.871448
0
LINE
8
0
10
111.8186461
20
-120.2438788
11
112.686887
21
-115.3198401
0
LINE
8
0
10
100.8691939
20
-113.236062
11
100.000953
21
-118.1601007
0
LINE
8
0
10
113.4050689
20
-150.2828091
11
124.9402093
21
-153.5904574
0
LINE
8
0
10
124.9402093
20
-153.5904574
11
126.3183961
21
-148.7841489
0
LINE
8
0
10
114.7832557
20
-145.4765006
11
113.4050689
21
-150.2828091
0
LINE
8
0
10
130.1773191
20
-135.3264852
11
131.5555059
21
-130.5201767
0
LINE
8
0
10
120.0203655
20
-127.2125284
11
118.6421787
21
-132.0188369
0
LINE
8
0
10
135.4144288
20
-117.0625129
11
136.7926156
21
-112.2562044
0
LINE
8
0
10
125.2574752
20
-108.9485561
11
123.8792884
21
-113.7548646
0
LINE
8
0
10
132.9061729
20
-151.1219507
11
144.109138
21
-155.4223661
0
LINE
8
0
10
144.109138
20
-155.4223661
11
145.9009777
21
-150.7544639
0
LINE
8
0
10
134.6980126
20
-146.4540485
11
132.9061729
21
-151.1219507
0
LINE
8
0
10
150.918129
20
-137.684338
11
152.7099687
21
-133.0164358
0
LINE
8
0
10
141.5070036
20
-128.7160204
11
139.7151639
21
-133.3839226
0
LINE
8
0
10
157.72712
20
-119.9463099
11
159.5189597
21
-115.2784077
0
LINE
8
0
10
148.3159946
20
-110.9779923
11
146.5241549
21
-115.6458945
0
LINE
8
0
10
148.459409
20
-160.7678076
11
159.2449375
21
-166.0282614
0
LINE
8
0
10
159.2449375
20
-166.0282614
11
161.4367932
21
-161.5342912
0
LINE
8
0
10
150.6512647
20
-156.2738374
11
148.459409
21
-160.7678076
0
LINE
8
0
10
167.5739893
20
-148.9511746
11
169.765845
21
-144.4572044
0
LINE
8
0
10
158.9803165
20
-139.1967506
11
156.7884608
21
-143.6907208
0
LINE
8
0
10
175.9030411
20
-131.8740877
11
178.0948968
21
-127.3801175
0
LINE
8
0
10
167.3093683
20
-122.1196637
11
165.1175126
21
-126.6136339
0
LINE
8
0
10
163.7830114
20
-172.6920356
11
174.5685399
21
-177.9524894
0
LINE
8
0
10
174.5685399
20
-177.9524894
11
176.7603956
21
-173.4585192
0
LINE
8
0
10
165.9748671
20
-168.1980654
11
163.7830114
21
-172.6920356
0
LINE
8
0
10
182.8975917
20
-160.8754025
11
185.0894474
21
-156.3814323
0
LINE
8
0
10
174.3039189
20
-151.1209785
11
172.1120632
21
-155.6149487
0
LINE
8
0
10
191.2266435
20
-143.7983156
11
193.4184992
21
-139.3043454
0
LINE
8
0
10
182.6329707
20
-134.0438916
11
180.441115
21
-138.5378618
0
LINE
8
0
10
354.1685093
20
-157.6665734
11
365.9862024
21
-155.5827953
0
LINE
8
0
10
365.9862024
20
-155.5827953
11
365.1179615
21
-150.6587566
0
LINE
8
0
10
353.3002684
20
-152.7425347
11
354.1685093
21
-157.6665734
0
LINE
8
0
10
362.686887
20
-136.871448
11
361.8186461
21
-131.9474093
0
LINE
8
0
10
350.000953
20
-134.0311874
11
350.8691939
21
-138.9552261
0
LINE
8
0
10
359.3875716
20
-118.1601007
11
358.5193307
21
-113.236062
0
LINE
8
0
10
346.7016376
20
-115.3198401
11
347.5698785
21
-120.2438788
0
LINE
8
0
10
334.4483153
20
-153.5904574
11
345.9834557
21
-150.2828091
0
LINE
8
0
10
345.9834557
20
-150.2828091
11
344.6052689
21
-145.4765006
0
LINE
8
0
10
333.0701285
20
-148.7841489
11
334.4483153
21
-153.5904574
0
LINE
8
0
10
340.7463459
20
-132.0188369
11
339.3681591
21
-127.2125284
0
LINE
8
0
10
327.8330187
20
-130.5201767
11
329.2112055
21
-135.3264852
0
LINE
8
0
10
335.5092362
20
-113.7548646
11
334.1310494
21
-108.9485561
0
LINE
8
0
10
322.595909
20
-112.2562044
11
323.9740958
21
-117.0625129
0
LINE
8
0
10
315.2793866
20
-155.4223661
11
326.4823517
21
-151.1219507
0
LINE
8
0
10
326.4823517
20
-151.1219507
11
324.690512
21
-146.4540485
0
LINE
8
0
10
313.4875469
20
-150.7544639
11
315.2793866
21
-155.4223661
0
LINE
8
0
10
319.6733607
20
-133.3839226
11
317.881521
21
-128.7160204
0
LINE
8
0
10
306.6785559
20
-133.0164358
11
308.4703956
21
-137.684338
0
LINE
8
0
10
312.8643697
20
-115.6458945
11
311.07253
21
-110.9779923
0
LINE
8
0
10
299.8695649
20
-115.2784077
11
301.6614046
21
-119.9463099
0
LINE
8
0
10
300.1435871
20
-166.0282614
11
310.9291156
21
-160.7678076
0
LINE
8
0
10
310.9291156
20
-160.7678076
11
308.7372599
21
-156.2738374
0
LINE
8
0
10
297.9517314
20
-161.5342912
11
300.1435871
21
-166.0282614
0
LINE
8
0
10
302.6000638
20
-143.6907208
11
300.4082081
21
-139.1967506
0
LINE
8
0
10
289.6226796
20
-144.4572044
11
291.8145353
21
-148.9511746
0
LINE
8
0
10
294.271012
20
-126.6136339
11
292.0791563
21
-122.1196637
0
LINE
8
0
10
281.2936278
20
-127.3801175
11
283.4854835
21
-131.8740877
0
LINE
8
0
10
284.8199847
20
-177.9524894
11
295.6055132
21
-172.6920356
0
LINE
8
0
10
295.6055132
20
-172.6920356
11
293.4136575
21
-168.1980654
0
LINE
8
0
10
282.628129
20
-173.4585192
11
284.8199847
21
-177.9524894
0
LINE
8
0
10
287.2764614
20
-155.6149487
11
285.0846057
21
-151.1209785
0
LINE
8
0
10
274.2990772
20
-156.3814323
11
276.4909329
21
-160.8754025
0
LINE
8
0
10
278.9474096
20
-138.5378618
11
276.7555539
21
-134.0438916
0
LINE
8
0
10
265.9700254
20
-139.3043454
11
268.1618811
21
-143.7983156
0
LINE
8
0
10
177.1335635
20
-180.1032571
11
167.807812
21
-187.6551017
0
LINE
8
0
10
167.807812
20
-187.6551017
11
170.6397537
21
-191.1522585
0
LINE
8
0
10
177.5601546
20
-186.1916082
11
180.2801654
21
-183.9889869
0
LINE
8
0
10
180.2801654
20
-183.9889869
11
177.1335635
21
-180.1032571
0
LINE
8
0
10
193.0491113
20
-200.2193912
11
181.7028884
21
-204.1262091
0
LINE
8
0
10
181.7028884
20
-204.1262091
11
183.167945
21
-208.3810427
0
LINE
8
0
10
191.367637
20
-206.0864727
11
194.676952
21
-204.9469841
0
LINE
8
0
10
194.676952
20
-204.9469841
11
193.0491113
21
-200.2193912
0
LINE
8
0
10
138.7494311
20
-156.6301417
11
132.5689742
21
-166.9161493
0
LINE
8
0
10
132.5689742
20
-166.9161493
11
136.4262271
21
-169.2338207
0
LINE
8
0
10
141.2326343
20
-162.2054176
11
143.0352676
21
-159.2053321
0
LINE
8
0
10
143.0352676
20
-159.2053321
11
138.7494311
21
-156.6301417
0
LINE
8
0
10
155.0356098
20
-166.4158651
11
148.8551529
21
-176.7018727
0
LINE
8
0
10
148.8551529
20
-176.7018727
11
152.7124058
21
-179.0195441
0
LINE
8
0
10
157.518813
20
-171.991141
11
159.3214463
21
-168.9910555
0
LINE
8
0
10
159.3214463
20
-168.9910555
11
155.0356098
21
-166.4158651
0
LINE
8
0
10
291.5807126
20
-187.6551017
11
282.2549611
21
-180.1032571
0
LINE
8
0
10
282.2549611
20
-180.1032571
11
279.1083592
21
-183.9889869
0
LINE
8
0
10
279.1083592
20
-183.9889869
11
281.82837
21
-186.1916082
0
LINE
8
0
10
288.7487709
20
-191.1522585
11
291.5807126
21
-187.6551017
0
LINE
8
0
10
277.6856362
20
-204.1262091
11
266.3394133
21
-200.2193912
0
LINE
8
0
10
266.3394133
20
-200.2193912
11
264.7115726
21
-204.9469841
0
LINE
8
0
10
264.7115726
20
-204.9469841
11
268.0208876
21
-206.0864727
0
LINE
8
0
10
276.2205796
20
-208.3810427
11
277.6856362
21
-204.1262091
0
LINE
8
0
10
326.8195504
20
-166.9161493
11
320.6390935
21
-156.6301417
0
LINE
8
0
10
320.6390935
20
-156.6301417
11
316.353257
21
-159.2053321
0
LINE
8
0
10
316.353257
20
-159.2053321
11
318.1558903
21
-162.2054176
0
LINE
8
0
10
322.9622975
20
-169.2338207
11
326.8195504
21
-166.9161493
0
LINE
8
0
10
310.5333717
20
-176.7018727
11
304.3529148
21
-166.4158651
0
LINE
8
0
10
304.3529148
20
-166.4158651
11
300.0670783
21
-168.9910555
0
LINE
8
0
10
300.0670783
20
-168.9910555
11
301.8697116
21
-171.991141
0
LINE
8
0
10
306.6761188
20
-179.0195441
11
310.5333717
21
-176.7018727
0
LINE
8
0
10
201.6084037
20
-185.6974237
11
205.1055605
21
-182.865482
0
LINE
8
0
10
205.1055605
20
-182.865482
11
197.5537159
21
-173.5397305
0
LINE
8
0
10
197.5537159
20
-173.5397305
11
194.056559
21
-176.3716722
0
LINE
8
0
10
213.4020918
20
-211.7196599
11
214.4431272
21
-211.3612027
0
LINE
8
0
10
215.7784962
20
-204.7992486
11
213.7501076
21
-198.9083804
0
LINE
8
0
10
213.7501076
20
-198.9083804
11
209.4952739
21
-200.373437
0
LINE
8
0
10
265.3319656
20
-176.3716722
11
261.8348087
21
-173.5397305
0
LINE
8
0
10
261.8348087
20
-173.5397305
11
254.2829641
21
-182.865482
0
LINE
8
0
10
254.2829641
20
-182.865482
11
257.7801209
21
-185.6974237
0
LINE
8
0
10
249.8932507
20
-200.373437
11
245.638417
21
-198.9083804
0
LINE
8
0
10
245.638417
20
-198.9083804
11
243.6100284
21
-204.7992486
0
LINE
8
0
10
244.9453974
20
-211.3612027
11
245.9864328
21
-211.7196599
0
ARC
8
0
10
218.7496352
20
-208.8207325
40
5
50
210.5369579
51
486.4576035
0
ARC
8
0
10
240.6388894
20
-208.8207325
40
5
50
53.5423965
51
329.4630421
0
CIRCLE
8
0
10
144.7006042
20
-91.9336814
40
5
0
CIRCLE
8
0
10
314.6879204
20
-91.9336814
40
5
0
CIRCLE
8
0
10
353.878077
20
-197.3764017
40
5
0
CIRCLE
8
0
10
126.3413826
20
-212.8706634
40
5
0
CIRCLE
8
0
10
333.047142
20
-212.8706634
40
5
0
CIRCLE
8
0
10
298.1146979
20
-216.9774129
40
5
0
CIRCLE
8
0
10
241.881664
20
-87.6347136
40
5
0
CIRCLE
8
0
10
217.5068606
20
-87.6347136
40
5
0
ARC
8
0
10
96.1758847
20
-105.3005186
40
5
50
349.9999999
51
709.9999999
0
ARC
8
0
10
363.2126399
20
-105.3005186
40
5
50
190.0000001
51
550.0000001
0
ENDSEC
0
EOF