0
SECTION
2
HEADER
9
$INSUNITS
70
4
0
ENDSEC
0
SECTION
2
TABLES
0
TABLE
2
LTYPE
0
LTYPE
72
65
70
64
2
CONTINUOUS
3
______
73
0
40
0
0
ENDTAB
0
TABLE
2
LAYER
0
ENDTAB
0
ENDSEC
0
SECTION
2
ENTITIES
0
LINE
8
0
10
117.5370693
20
-84.068778
11
90.9888822
21
-94.5989886
0
LINE
8
0
10
89.7362811
20
-96.2583617
11
83.191274
21
-161.471507
0
LINE
8
0
10
83.2858371
20
-162.3094376
11
102.7453501
21
-220.1030913
0
LINE
8
0
10
104.3735834
20
-221.4469537
11
181.8227979
21
-231.8880129
0
LINE
8
0
10
182.7411405
20
-231.7969803
11
221.6930548
21
-218.3847606
0
LINE
8
0
10
222.3441912
20
-218.2757978
11
237.0443334
21
-218.2757978
0
LINE
8
0
10
237.6954698
20
-218.3847606
11
276.6473841
21
-231.7969803
0
LINE
8
0
10
277.5657267
20
-231.8880129
11
355.0149412
21
-221.4469537
0
LINE
8
0
10
356.6431745
20
-220.1030913
11
376.1026875
21
-162.3094376
0
LINE
8
0
10
376.1972506
20
-161.471507
11
369.6522435
21
-96.2583617
0
LINE
8
0
10
368.3996424
20
-94.5989886
11
341.8514553
21
-84.068778
0
LINE
8
0
10
341.177611
20
-83.9288844
11
229.7578197
21
-80.3863175
0
LINE
8
0
10
229.6307049
20
-80.3863175
11
185.0228373
21
-81.8046145
0
LINE
8
0
10
146.8273037
20
-83.0190328
11
118.2109136
21
-83.9288844
0
LINE
8
0
10
211.0856555
20
-116.7683391
11
218.9763361
21
-100.5900462
0
ARC
8
0
10
218.0775421
20
-100.1516751
40
1
50
334
51
64
0
LINE
8
0
10
218.5159132
20
-99.252881
11
189.7545038
21
-85.2250044
0
ARC
8
0
10
176.0326877
20
-99.6718643
40
1
50
154
51
244
0
LINE
8
0
10
175.5943166
20
-100.5706584
11
209.7484903
21
-117.228762
0
ARC
8
0
10
210.1868615
20
-116.3299679
40
1
50
244
51
334
0
ARC
8
0
10
188.8557098
20
-84.7866332
40
1
50
334
51
64
0
LINE
8
0
10
189.2940809
20
-83.8878392
11
185.0228373
21
-81.8046145
0
ARC
8
0
10
147.6875976
20
-82.5092344
40
1
50
210.6504022
51
244
0
LINE
8
0
10
147.2492265
20
-83.4080284
11
174.2130479
21
-96.5591628
0
ARC
8
0
10
91.7262838
20
-96.4580849
40
2
50
111.6355151
51
174.2687989
0
ARC
8
0
10
85.1812767
20
-161.6712302
40
2
50
174.2687989
51
198.6087292
0
ARC
8
0
10
104.6407896
20
-219.4648839
40
2
50
198.6087292
51
262.3221482
0
ARC
8
0
10
182.0900041
20
-229.9059431
40
2
50
262.3221482
51
289.000002
0
ARC
8
0
10
222.3441912
20
-220.2757978
40
2
50
90
51
109.000002
0
ARC
8
0
10
237.0443334
20
-220.2757978
40
2
50
70.999998
51
90
0
ARC
8
0
10
277.2985205
20
-229.9059431
40
2
50
250.999998
51
277.6778518
0
ARC
8
0
10
354.747735
20
-219.4648839
40
2
50
277.6778518
51
341.3912708
0
ARC
8
0
10
374.2072479
20
-161.6712302
40
2
50
341.3912708
51
5.7312011
0
ARC
8
0
10
367.6622408
20
-96.4580849
40
2
50
5.7312011
51
68.3644849
0
ARC
8
0
10
341.1140536
20
-85.9278743
40
2
50
68.3644849
51
88.178908
0
ARC
8
0
10
229.6942623
20
-82.3853074
40
2
50
88.178908
51
91.821092
0
ARC
8
0
10
173.3363056
20
-98.3567509
40
2
50
334.0000012
51
64.0000012
0
ARC
8
0
10
118.274471
20
-85.9278743
40
2
50
91.821092
51
111.6355151
0
LINE
8
0
10
93.2857554
20
-150.4851083
11
107.0730639
21
-152.9161828
0
LINE
8
0
10
107.0730639
20
-152.9161828
11
109.5041384
21
-139.1288743
0
LINE
8
0
10
109.5041384
20
-139.1288743
11
95.7168299
21
-136.6977998
0
LINE
8
0
10
95.7168299
20
-136.6977998
11
93.2857554
21
-150.4851083
0
LINE
8
0
10
96.5850708
20
-131.773761
11
110.3723793
21
-134.2048355
0
LINE
8
0
10
110.3723793
20
-134.2048355
11
112.8034538
21
-120.417527
0
LINE
8
0
10
112.8034538
20
-120.417527
11
99.0161453
21
-117.9864525
0
LINE
8
0
10
99.0161453
20
-117.9864525
11
96.5850708
21
-131.773761
0
LINE
8
0
10
99.8843862
20
-113.0624137
11
113.6716947
21
-115.4934882
0
LINE
8
0
10
113.6716947
20
-115.4934882
11
116.1027692
21
-101.7061797
0
LINE
8
0
10
116.1027692
20
-101.7061797
11
102.3154607
21
-99.2751052
0
LINE
8
0
10
102.3154607
20
-99.2751052
11
99.8843862
21
-113.0624137
0
LINE
8
0
10
113.821994
20
-145.2008633
11
127.2796578
21
-149.0597863
0
LINE
8
0
10
127.2796578
20
-149.0597863
11
131.1385808
21
-135.6021225
0
LINE
8
0
10
131.1385808
20
-135.6021225
11
117.680917
21
-131.7431995
0
LINE
8
0
10
117.680917
20
-131.7431995
11
113.821994
21
-145.2008633
0
LINE
8
0
10
119.0591038
20
-126.9368911
11
132.5167676
21
-130.7958141
0
LINE
8
0
10
132.5167676
20
-130.7958141
11
136.3756906
21
-117.3381503
0
LINE
8
0
10
136.3756906
20
-117.3381503
11
122.9180268
21
-113.4792273
0
LINE
8
0
10
122.9180268
20
-113.4792273
11
119.0591038
21
-126.9368911
0
LINE
8
0
10
124.2962135
20
-108.6729188
11
137.7538773
21
-112.5318418
0
LINE
8
0
10
137.7538773
20
-112.5318418
11
141.6128003
21
-99.074178
0
LINE
8
0
10
141.6128003
20
-99.074178
11
128.1551365
21
-95.215255
0
LINE
8
0
10
128.1551365
20
-95.215255
11
124.2962135
21
-108.6729188
0
LINE
8
0
10
133.7644322
20
-146.0956805
11
146.8345581
21
-151.1128318
0
LINE
8
0
10
146.8345581
20
-151.1128318
11
151.8517094
21
-138.0427059
0
LINE
8
0
10
151.8517094
20
-138.0427059
11
138.7815835
21
-133.0255546
0
LINE
8
0
10
138.7815835
20
-133.0255546
11
133.7644322
21
-146.0956805
0
LINE
8
0
10
140.5734232
20
-128.3576524
11
153.6435491
21
-133.3748037
0
LINE
8
0
10
153.6435491
20
-133.3748037
11
158.6607004
21
-120.3046778
0
LINE
8
0
10
158.6607004
20
-120.3046778
11
145.5905745
21
-115.2875265
0
LINE
8
0
10
145.5905745
20
-115.2875265
11
140.5734232
21
-128.3576524
0
LINE
8
0
10
147.3824142
20
-110.6196243
11
160.4525401
21
-115.6367756
0
LINE
8
0
10
160.4525401
20
-115.6367756
11
165.4696914
21
-102.5666497
0
LINE
8
0
10
165.4696914
20
-102.5666497
11
152.3995655
21
-97.5494984
0
LINE
8
0
10
152.3995655
20
-97.5494984
11
147.3824142
21
-110.6196243
0
LINE
8
0
10
149.7524706
20
-155.8354663
11
162.3355873
21
-161.9726624
0
LINE
8
0
10
162.3355873
20
-161.9726624
11
168.4727834
21
-149.3895457
0
LINE
8
0
10
168.4727834
20
-149.3895457
11
155.8896667
21
-143.2523496
0
LINE
8
0
10
155.8896667
20
-143.2523496
11
149.7524706
21
-155.8354663
0
LINE
8
0
10
158.0815224
20
-138.7583795
11
170.6646391
21
-144.8955756
0
LINE
8
0
10
170.6646391
20
-144.8955756
11
176.8018352
21
-132.3124589
0
LINE
8
0
10
176.8018352
20
-132.3124589
11
164.2187185
21
-126.1752628
0
LINE
8
0
10
164.2187185
20
-126.1752628
11
158.0815224
21
-138.7583795
0
LINE
8
0
10
166.4105742
20
-121.6812926
11
178.9936909
21
-127.8184887
0
LINE
8
0
10
178.9936909
20
-127.8184887
11
185.130887
21
-115.235372
0
LINE
8
0
10
185.130887
20
-115.235372
11
172.5477703
21
-109.0981759
0
LINE
8
0
10
172.5477703
20
-109.0981759
11
166.4105742
21
-121.6812926
0
LINE
8
0
10
165.076073
20
-167.7596943
11
177.6591897
21
-173.8968904
0
LINE
8
0
10
177.6591897
20
-173.8968904
11
183.7963858
21
-161.3137737
0
LINE
8
0
10
183.7963858
20
-161.3137737
11
171.2132691
21
-155.1765776
0
LINE
8
0
10
171.2132691
20
-155.1765776
11
165.076073
21
-167.7596943
0
LINE
8
0
10
173.4051248
20
-150.6826074
11
185.9882415
21
-156.8198035
0
LINE
8
0
10
185.9882415
20
-156.8198035
11
192.1254376
21
-144.2366868
0
LINE
8
0
10
192.1254376
20
-144.2366868
11
179.5423209
21
-138.0994907
0
LINE
8
0
10
179.5423209
20
-138.0994907
11
173.4051248
21
-150.6826074
0
LINE
8
0
10
181.7341766
20
-133.6055205
11
194.3172933
21
-139.7427166
0
LINE
8
0
10
194.3172933
20
-139.7427166
11
200.4544894
21
-127.1595999
0
LINE
8
0
10
200.4544894
20
-127.1595999
11
187.8713727
21
-121.0224038
0
LINE
8
0
10
187.8713727
20
-121.0224038
11
181.7341766
21
-133.6055205
0
LINE
8
0
10
166.3654509
20
-194.6135207
11
175.1759364
21
-205.4935642
0
LINE
8
0
10
175.1759364
20
-205.4935642
11
186.0559799
21
-196.6830787
0
LINE
8
0
10
186.0559799
20
-196.6830787
11
177.2454944
21
-185.8030352
0
LINE
8
0
10
177.2454944
20
-185.8030352
11
166.3654509
21
-194.6135207
0
LINE
8
0
10
182.5471951
20
-184.4050117
11
191.3576806
21
-195.2850552
0
LINE
8
0
10
191.3576806
20
-195.2850552
11
202.2377241
21
-186.4745697
0
LINE
8
0
10
202.2377241
20
-186.4745697
11
193.4272386
21
-175.5945262
0
LINE
8
0
10
193.4272386
20
-175.5945262
11
182.5471951
21
-184.4050117
0
LINE
8
0
10
177.9675929
20
-210.1716676
11
182.5255471
21
-223.4089276
0
LINE
8
0
10
182.5255471
20
-223.4089276
11
195.7628071
21
-218.8509734
0
LINE
8
0
10
195.7628071
20
-218.8509734
11
191.2048529
21
-205.6137134
0
LINE
8
0
10
191.2048529
20
-205.6137134
11
177.9675929
21
-210.1716676
0
LINE
8
0
10
195.9324458
20
-203.9858727
11
200.4904
21
-217.2231327
0
LINE
8
0
10
200.4904
20
-217.2231327
11
213.72766
21
-212.6651785
0
LINE
8
0
10
213.72766
20
-212.6651785
11
209.1697058
21
-199.4279185
0
LINE
8
0
10
209.1697058
20
-199.4279185
11
195.9324458
21
-203.9858727
0
LINE
8
0
10
133.5935177
20
-173.9482408
11
145.5938599
21
-181.1587738
0
LINE
8
0
10
145.5938599
20
-181.1587738
11
152.8043929
21
-169.1584316
0
LINE
8
0
10
152.8043929
20
-169.1584316
11
140.8040507
21
-161.9478986
0
LINE
8
0
10
140.8040507
20
-161.9478986
11
133.5935177
21
-173.9482408
0
LINE
8
0
10
149.8796964
20
-183.7339642
11
161.8800386
21
-190.9444972
0
LINE
8
0
10
161.8800386
20
-190.9444972
11
169.0905716
21
-178.944155
0
LINE
8
0
10
169.0905716
20
-178.944155
11
157.0902294
21
-171.733622
0
LINE
8
0
10
157.0902294
20
-171.733622
11
149.8796964
21
-183.7339642
0
LINE
8
0
10
352.3154607
20
-152.9161828
11
366.1027692
21
-150.4851083
0
LINE
8
0
10
366.1027692
20
-150.4851083
11
363.6716947
21
-136.6977998
0
LINE
8
0
10
363.6716947
20
-136.6977998
11
349.8843862
21
-139.1288743
0
LINE
8
0
10
349.8843862
20
-139.1288743
11
352.3154607
21
-152.9161828
0
LINE
8
0
10
349.0161453
20
-134.2048355
11
362.8034538
21
-131.773761
0
LINE
8
0
10
362.8034538
20
-131.773761
11
360.3723793
21
-117.9864525
0
LINE
8
0
10
360.3723793
20
-117.9864525
11
346.5850708
21
-120.417527
0
LINE
8
0
10
346.5850708
20
-120.417527
11
349.0161453
21
-134.2048355
0
LINE
8
0
10
345.7168299
20
-115.4934882
11
359.5041384
21
-113.0624137
0
LINE
8
0
10
359.5041384
20
-113.0624137
11
357.0730639
21
-99.2751052
0
LINE
8
0
10
357.0730639
20
-99.2751052
11
343.2857554
21
-101.7061797
0
LINE
8
0
10
343.2857554
20
-101.7061797
11
345.7168299
21
-115.4934882
0
LINE
8
0
10
332.1088668
20
-149.0597863
11
345.5665306
21
-145.2008633
0
LINE
8
0
10
345.5665306
20
-145.2008633
11
341.7076076
21
-131.7431995
0
LINE
8
0
10
341.7076076
20
-131.7431995
11
328.2499438
21
-135.6021225
0
LINE
8
0
10
328.2499438
20
-135.6021225
11
332.1088668
21
-149.0597863
0
LINE
8
0
10
326.871757
20
-130.7958141
11
340.3294208
21
-126.9368911
0
LINE
8
0
10
340.3294208
20
-126.9368911
11
336.4704978
21
-113.4792273
0
LINE
8
0
10
336.4704978
20
-113.4792273
11
323.012834
21
-117.3381503
0
LINE
8
0
10
323.012834
20
-117.3381503
11
326.871757
21
-130.7958141
0
LINE
8
0
10
321.6346473
20
-112.5318418
11
335.0923111
21
-108.6729188
0
LINE
8
0
10
335.0923111
20
-108.6729188
11
331.2333881
21
-95.215255
0
LINE
8
0
10
331.2333881
20
-95.215255
11
317.7757243
21
-99.074178
0
LINE
8
0
10
317.7757243
20
-99.074178
11
321.6346473
21
-112.5318418
0
LINE
8
0
10
312.5539665
20
-151.1128318
11
325.6240924
21
-146.0956805
0
LINE
8
0
10
325.6240924
20
-146.0956805
11
320.6069411
21
-133.0255546
0
LINE
8
0
10
320.6069411
20
-133.0255546
11
307.5368152
21
-138.0427059
0
LINE
8
0
10
307.5368152
20
-138.0427059
11
312.5539665
21
-151.1128318
0
LINE
8
0
10
305.7449755
20
-133.3748037
11
318.8151014
21
-128.3576524
0
LINE
8
0
10
318.8151014
20
-128.3576524
11
313.7979501
21
-115.2875265
0
LINE
8
0
10
313.7979501
20
-115.2875265
11
300.7278242
21
-120.3046778
0
LINE
8
0
10
300.7278242
20
-120.3046778
11
305.7449755
21
-133.3748037
0
LINE
8
0
10
298.9359845
20
-115.6367756
11
312.0061104
21
-110.6196243
0
LINE
8
0
10
312.0061104
20
-110.6196243
11
306.9889591
21
-97.5494984
0
LINE
8
0
10
306.9889591
20
-97.5494984
11
293.9188332
21
-102.5666497
0
LINE
8
0
10
293.9188332
20
-102.5666497
11
298.9359845
21
-115.6367756
0
LINE
8
0
10
297.0529373
20
-161.9726624
11
309.636054
21
-155.8354663
0
LINE
8
0
10
309.636054
20
-155.8354663
11
303.4988579
21
-143.2523496
0
LINE
8
0
10
303.4988579
20
-143.2523496
11
290.9157412
21
-149.3895457
0
LINE
8
0
10
290.9157412
20
-149.3895457
11
297.0529373
21
-161.9726624
0
LINE
8
0
10
288.7238855
20
-144.8955756
11
301.3070022
21
-138.7583795
0
LINE
8
0
10
301.3070022
20
-138.7583795
11
295.1698061
21
-126.1752628
0
LINE
8
0
10
295.1698061
20
-126.1752628
11
282.5866894
21
-132.3124589
0
LINE
8
0
10
282.5866894
20
-132.3124589
11
288.7238855
21
-144.8955756
0
LINE
8
0
10
280.3948337
20
-127.8184887
11
292.9779504
21
-121.6812926
0
LINE
8
0
10
292.9779504
20
-121.6812926
11
286.8407543
21
-109.0981759
0
LINE
8
0
10
286.8407543
20
-109.0981759
11
274.2576376
21
-115.235372
0
LINE
8
0
10
274.2576376
20
-115.235372
11
280.3948337
21
-127.8184887
0
LINE
8
0
10
281.7293349
20
-173.8968904
11
294.3124516
21
-167.7596943
0
LINE
8
0
10
294.3124516
20
-167.7596943
11
288.1752555
21
-155.1765776
0
LINE
8
0
10
288.1752555
20
-155.1765776
11
275.5921388
21
-161.3137737
0
LINE
8
0
10
275.5921388
20
-161.3137737
11
281.7293349
21
-173.8968904
0
LINE
8
0
10
273.4002831
20
-156.8198035
11
285.9833998
21
-150.6826074
0
LINE
8
0
10
285.9833998
20
-150.6826074
11
279.8462037
21
-138.0994907
0
LINE
8
0
10
279.8462037
20
-138.0994907
11
267.263087
21
-144.2366868
0
LINE
8
0
10
267.263087
20
-144.2366868
11
273.4002831
21
-156.8198035
0
LINE
8
0
10
265.0712313
20
-139.7427166
11
277.654348
21
-133.6055205
0
LINE
8
0
10
277.654348
20
-133.6055205
11
271.5171519
21
-121.0224038
0
LINE
8
0
10
271.5171519
20
-121.0224038
11
258.9340352
21
-127.1595999
0
LINE
8
0
10
258.9340352
20
-127.1595999
11
265.0712313
21
-139.7427166
0
LINE
8
0
10
284.2125882
20
-205.4935642
11
293.0230737
21
-194.6135207
0
LINE
8
0
10
293.0230737
20
-194.6135207
11
282.1430302
21
-185.8030352
0
LINE
8
0
10
282.1430302
20
-185.8030352
11
273.3325447
21
-196.6830787
0
LINE
8
0
10
273.3325447
20
-196.6830787
11
284.2125882
21
-205.4935642
0
LINE
8
0
10
268.030844
20
-195.2850552
11
276.8413295
21
-184.4050117
0
LINE
8
0
10
276.8413295
20
-184.4050117
11
265.961286
21
-175.5945262
0
LINE
8
0
10
265.961286
20
-175.5945262
11
257.1508005
21
-186.4745697
0
LINE
8
0
10
257.1508005
20
-186.4745697
11
268.030844
21
-195.2850552
0
LINE
8
0
10
276.8629775
20
-223.4089276
11
281.4209317
21
-210.1716676
0
LINE
8
0
10
281.4209317
20
-210.1716676
11
268.1836717
21
-205.6137134
0
LINE
8
0
10
268.1836717
20
-205.6137134
11
263.6257175
21
-218.8509734
0
LINE
8
0
10
263.6257175
20
-218.8509734
11
276.8629775
21
-223.4089276
0
LINE
8
0
10
258.8981246
20
-217.2231327
11
263.4560788
21
-203.9858727
0
LINE
8
0
10
263.4560788
20
-203.9858727
11
250.2188188
21
-199.4279185
0
LINE
8
0
10
250.2188188
20
-199.4279185
11
245.6608646
21
-212.6651785
0
LINE
8
0
10
245.6608646
20
-212.6651785
11
258.8981246
21
-217.2231327
0
LINE
8
0
10
313.7946647
20
-181.1587738
11
325.7950069
21
-173.9482408
0
LINE
8
0
10
325.7950069
20
-173.9482408
11
318.5844739
21
-161.9478986
0
LINE
8
0
10
318.5844739
20
-161.9478986
11
306.5841317
21
-169.1584316
0
LINE
8
0
10
306.5841317
20
-169.1584316
11
313.7946647
21
-181.1587738
0
LINE
8
0
10
297.508486
20
-190.9444972
11
309.5088282
21
-183.7339642
0
LINE
8
0
10
309.5088282
20
-183.7339642
11
302.2982952
21
-171.733622
0
LINE
8
0
10
302.2982952
20
-171.733622
11
290.297953
21
-178.944155
0
LINE
8
0
10
290.297953
20
-178.944155
11
297.508486
21
-190.9444972
0
LINE
8
0
10
115.9669841
20
-166.682056
11
124.2815069
21
-171.6779254
0
LINE
8
0
10
124.2815069
20
-171.6779254
11
129.2773763
21
-163.3634026
0
LINE
8
0
10
129.2773763
20
-163.3634026
11
120.9628535
21
-158.3675332
0
LINE
8
0
10
120.9628535
20
-158.3675332
11
115.9669841
21
-166.682056
0
LINE
8
0
10
335.1070177
20
-171.6779254
11
343.4215405
21
-166.682056
0
LINE
8
0
10
343.4215405
20
-166.682056
11
338.4256711
21
-158.3675332
0
LINE
8
0
10
338.4256711
20
-158.3675332
11
330.1111483
21
-163.3634026
0
LINE
8
0
10
330.1111483
20
-163.3634026
11
335.1070177
21
-171.6779254
0
ENDSEC
0
EOF