0
SECTION
2
HEADER
9
$INSUNITS
70
4
0
ENDSEC
0
SECTION
2
TABLES
0
TABLE
2
LTYPE
0
LTYPE
72
65
70
64
2
CONTINUOUS
3
______
73
0
40
0
0
ENDTAB
0
TABLE
2
LAYER
0
ENDTAB
0
ENDSEC
0
SECTION
2
ENTITIES
0
LINE
8
0
10
117.5370693
20
-84.068778
11
90.9888822
21
-94.5989886
0
LINE
8
0
10
89.7362811
20
-96.2583617
11
83.191274
21
-161.471507
0
LINE
8
0
10
83.2858371
20
-162.3094376
11
102.7453501
21
-220.1030913
0
LINE
8
0
10
104.3735834
20
-221.4469537
11
181.8227979
21
-231.8880129
0
LINE
8
0
10
182.7411405
20
-231.7969803
11
221.6930548
21
-218.3847606
0
LINE
8
0
10
222.3441912
20
-218.2757978
11
237.0443334
21
-218.2757978
0
LINE
8
0
10
237.6954698
20
-218.3847606
11
276.6473841
21
-231.7969803
0
LINE
8
0
10
277.5657267
20
-231.8880129
11
355.0149412
21
-221.4469537
0
LINE
8
0
10
356.6431745
20
-220.1030913
11
376.1026875
21
-162.3094376
0
LINE
8
0
10
376.1972506
20
-161.471507
11
369.6522435
21
-96.2583617
0
LINE
8
0
10
368.3996424
20
-94.5989886
11
341.8514553
21
-84.068778
0
LINE
8
0
10
341.177611
20
-83.9288844
11
229.7578197
21
-80.3863175
0
LINE
8
0
10
229.6307049
20
-80.3863175
11
185.0228373
21
-81.8046145
0
LINE
8
0
10
146.8273037
20
-83.0190328
11
118.2109136
21
-83.9288844
0
LINE
8
0
10
211.0856555
20
-116.7683391
11
218.9763361
21
-100.5900462
0
ARC
8
0
10
218.0775421
20
-100.1516751
40
1
50
334
51
64
0
LINE
8
0
10
218.5159132
20
-99.252881
11
189.7545038
21
-85.2250044
0
LINE
8
0
10
175.1338937
20
-99.2334932
11
175.1338937
21
-99.2334932
0
ARC
8
0
10
176.0326877
20
-99.6718643
40
1
50
154
51
244
0
LINE
8
0
10
175.5943166
20
-100.5706584
11
209.7484903
21
-117.228762
0
ARC
8
0
10
210.1868615
20
-116.3299679
40
1
50
244
51
334
0
ARC
8
0
10
188.8557098
20
-84.7866332
40
1
50
334
51
64
0
LINE
8
0
10
189.2940809
20
-83.8878392
11
185.0228373
21
-81.8046145
0
ARC
8
0
10
147.6875976
20
-82.5092344
40
1
50
210.6504022
51
244
0
LINE
8
0
10
147.2492265
20
-83.4080284
11
174.2130479
21
-96.5591628
0
ARC
8
0
10
91.7262838
20
-96.4580849
40
2
50
111.6355151
51
174.2687989
0
ARC
8
0
10
85.1812767
20
-161.6712302
40
2
50
174.2687989
51
198.6087292
0
ARC
8
0
10
104.6407896
20
-219.4648839
40
2
50
198.6087292
51
262.3221482
0
ARC
8
0
10
182.0900041
20
-229.9059431
40
2
50
262.3221482
51
289.000002
0
ARC
8
0
10
222.3441912
20
-220.2757978
40
2
50
90
51
109.000002
0
ARC
8
0
10
237.0443334
20
-220.2757978
40
2
50
70.999998
51
90
0
ARC
8
0
10
277.2985205
20
-229.9059431
40
2
50
250.999998
51
277.6778518
0
ARC
8
0
10
354.747735
20
-219.4648839
40
2
50
277.6778518
51
341.3912708
0
ARC
8
0
10
374.2072479
20
-161.6712302
40
2
50
341.3912708
51
5.7312011
0
ARC
8
0
10
367.6622408
20
-96.4580849
40
2
50
5.7312011
51
68.3644849
0
ARC
8
0
10
341.1140536
20
-85.9278743
40
2
50
68.3644849
51
88.178908
0
ARC
8
0
10
229.6942623
20
-82.3853074
40
2
50
88.178908
51
91.821092
0
ARC
8
0
10
173.3363056
20
-98.3567509
40
2
50
334.0000012
51
64.0000012
0
ARC
8
0
10
118.274471
20
-85.9278743
40
2
50
91.821092
51
111.6355151
0
ENDSEC
0
EOF