0
SECTION
2
HEADER
9
$INSUNITS
70
4
0
ENDSEC
0
SECTION
2
TABLES
0
TABLE
2
LTYPE
0
LTYPE
72
65
70
64
2
CONTINUOUS
3
______
73
0
40
0
0
ENDTAB
0
TABLE
2
LAYER
0
ENDTAB
0
ENDSEC
0
SECTION
2
ENTITIES
0
LINE
8
0
10
117.5370693
20
-84.068778
11
90.9888822
21
-94.5989886
0
LINE
8
0
10
89.7362811
20
-96.2583617
11
83.191274
21
-161.471507
0
LINE
8
0
10
83.2858371
20
-162.3094376
11
102.7453501
21
-220.1030913
0
LINE
8
0
10
104.3735834
20
-221.4469537
11
121.5639796
21
-223.76442
0
LINE
8
0
10
185.4368167
20
-230.8687845
11
221.6930548
21
-218.3847606
0
LINE
8
0
10
222.3441912
20
-218.2757978
11
237.0443334
21
-218.2757978
0
LINE
8
0
10
237.6954698
20
-218.3847606
11
273.9517079
21
-230.8687845
0
LINE
8
0
10
337.824545
20
-223.76442
11
355.0149412
21
-221.4469537
0
LINE
8
0
10
356.6431745
20
-220.1030913
11
376.1026875
21
-162.3094376
0
LINE
8
0
10
376.1972506
20
-161.471507
11
369.6522435
21
-96.2583617
0
LINE
8
0
10
368.3996424
20
-94.5989886
11
341.8514553
21
-84.068778
0
LINE
8
0
10
341.177611
20
-83.9288844
11
229.7578197
21
-80.3863175
0
LINE
8
0
10
229.6307049
20
-80.3863175
11
187.6433417
21
-81.7212962
0
LINE
8
0
10
142.7672171
20
-83.1481223
11
118.2109136
21
-83.9288844
0
LINE
8
0
10
178.0384355
20
-98.98123
11
185.9093109
21
-82.8435438
0
LINE
8
0
10
143.7075168
20
-83.3495241
11
176.7012703
21
-99.4416529
0
ARC
8
0
10
177.1396414
20
-98.5428589
40
1
50
244
51
334
0
LINE
8
0
10
123.8220418
20
-221.97338
11
128.1785195
21
-176.5714641
0
LINE
8
0
10
182.293585
20
-226.6629827
11
182.8230714
21
-229.3626714
0
LINE
8
0
10
335.5664828
20
-221.97338
11
331.2100051
21
-176.5714641
0
LINE
8
0
10
277.0949396
20
-226.6629827
11
276.5654532
21
-229.3626714
0
ARC
8
0
10
91.7262838
20
-96.4580849
40
2
50
111.6355151
51
174.2687989
0
ARC
8
0
10
85.1812767
20
-161.6712302
40
2
50
174.2687989
51
198.6087292
0
ARC
8
0
10
104.6407896
20
-219.4648839
40
2
50
198.6087292
51
262.3221482
0
ARC
8
0
10
121.8311858
20
-221.7823502
40
2
50
262.3221482
51
354.5190438
0
ARC
8
0
10
130.1693755
20
-176.7624939
40
2
50
108.2721601
51
174.5190438
0
ARC
8
0
10
184.7856803
20
-228.9777474
40
2
50
191.096499
51
289.000002
0
ARC
8
0
10
222.3441912
20
-220.2757978
40
2
50
90
51
109.000002
0
ARC
8
0
10
237.0443334
20
-220.2757978
40
2
50
70.999998
51
90
0
ARC
8
0
10
274.6028443
20
-228.9777474
40
2
50
250.999998
51
348.903501
0
ARC
8
0
10
329.2191491
20
-176.7624939
40
2
50
5.4809562
51
71.7278399
0
ARC
8
0
10
337.5573388
20
-221.7823502
40
2
50
185.4809562
51
277.6778518
0
ARC
8
0
10
354.747735
20
-219.4648839
40
2
50
277.6778518
51
341.3912708
0
ARC
8
0
10
374.2072479
20
-161.6712302
40
2
50
341.3912708
51
5.7312011
0
ARC
8
0
10
367.6622408
20
-96.4580849
40
2
50
5.7312011
51
68.3644849
0
ARC
8
0
10
341.1140536
20
-85.9278743
40
2
50
68.3644849
51
88.178908
0
ARC
8
0
10
229.6942623
20
-82.3853074
40
2
50
88.178908
51
91.821092
0
ARC
8
0
10
187.7068991
20
-83.7202861
40
2
50
91.821092
51
154.0000012
0
ARC
8
0
10
142.8307745
20
-85.1471122
40
2
50
64.0000012
51
91.821092
0
ARC
8
0
10
118.274471
20
-85.9278743
40
2
50
91.821092
51
111.6355151
0
LINE
8
0
10
339.8089395
20
-99.271687
11
359.5075566
21
-95.7982893
0
LINE
8
0
10
359.5075566
20
-95.7982893
11
369.5795851
21
-152.919601
0
LINE
8
0
10
369.5795851
20
-152.919601
11
349.880968
21
-156.3929987
0
LINE
8
0
10
349.880968
20
-156.3929987
11
348.3179173
21
-147.5284979
0
LINE
8
0
10
348.3179173
20
-147.5284979
11
330.0511368
21
-152.7720295
0
LINE
8
0
10
330.0511368
20
-152.7720295
11
328.6726054
21
-147.9645195
0
LINE
8
0
10
328.6726054
20
-147.9645195
11
320.1645813
21
-151.4061644
0
LINE
8
0
10
320.1645813
20
-151.4061644
11
319.6112892
21
-157.8295672
0
LINE
8
0
10
319.6112892
20
-157.8295672
11
329.8462113
21
-174.863338
0
LINE
8
0
10
277.0949396
20
-226.6629827
11
241.8460155
21
-214.5258047
0
LINE
8
0
10
241.8460155
20
-214.5258047
11
248.3581926
21
-195.6130694
0
LINE
8
0
10
248.3581926
20
-195.6130694
11
252.9296434
21
-186.9182312
0
LINE
8
0
10
252.9296434
20
-186.9182312
11
272.4401488
21
-162.8247635
0
LINE
8
0
10
272.4401488
20
-162.8247635
11
272.0184389
21
-160.8329705
0
LINE
8
0
10
272.0184389
20
-160.8329705
11
254.9208682
21
-125.7777557
0
LINE
8
0
10
254.9208682
20
-125.7777557
11
272.0002021
21
-117.447608
0
LINE
8
0
10
272.0002021
20
-117.447608
11
270.2444706
21
-113.8535278
0
LINE
8
0
10
270.2444706
20
-113.8535278
11
288.2225985
21
-105.0850089
0
LINE
8
0
10
288.2225985
20
-105.0850089
11
290.0413731
21
-100.8402932
0
LINE
8
0
10
290.0413731
20
-100.8402932
11
308.7153156
21
-93.6720383
0
LINE
8
0
10
308.7153156
20
-93.6720383
11
314.0634811
21
-97.016448
0
LINE
8
0
10
314.0634811
20
-97.016448
11
333.2911181
21
-91.5030118
0
LINE
8
0
10
333.2911181
20
-91.5030118
11
339.8089395
21
-99.271687
0
LINE
8
0
10
119.5795851
20
-99.271687
11
99.880968
21
-95.7982893
0
LINE
8
0
10
99.880968
20
-95.7982893
11
89.8089395
21
-152.919601
0
LINE
8
0
10
89.8089395
20
-152.919601
11
109.5075566
21
-156.3929987
0
LINE
8
0
10
109.5075566
20
-156.3929987
11
111.0706073
21
-147.5284979
0
LINE
8
0
10
111.0706073
20
-147.5284979
11
129.3373878
21
-152.7720295
0
LINE
8
0
10
129.3373878
20
-152.7720295
11
130.7159192
21
-147.9645195
0
LINE
8
0
10
130.7159192
20
-147.9645195
11
139.2239433
21
-151.4061644
0
LINE
8
0
10
139.2239433
20
-151.4061644
11
139.7772354
21
-157.8295672
0
LINE
8
0
10
139.7772354
20
-157.8295672
11
129.5423133
21
-174.863338
0
LINE
8
0
10
182.293585
20
-226.6629827
11
217.5425091
21
-214.5258047
0
LINE
8
0
10
217.5425091
20
-214.5258047
11
211.030332
21
-195.6130694
0
LINE
8
0
10
211.030332
20
-195.6130694
11
206.4588812
21
-186.9182312
0
LINE
8
0
10
186.9483758
20
-162.8247635
11
206.4588812
21
-186.9182312
0
LINE
8
0
10
186.9483758
20
-162.8247635
11
187.3700857
21
-160.8329705
0
LINE
8
0
10
187.3700857
20
-160.8329705
11
204.4676564
21
-125.7777557
0
LINE
8
0
10
204.4676564
20
-125.7777557
11
187.3883225
21
-117.447608
0
LINE
8
0
10
187.3883225
20
-117.447608
11
189.144054
21
-113.8535278
0
LINE
8
0
10
189.144054
20
-113.8535278
11
171.1659261
21
-105.0850089
0
LINE
8
0
10
171.1659261
20
-105.0850089
11
169.3471515
21
-100.8402932
0
LINE
8
0
10
169.3471515
20
-100.8402932
11
150.673209
21
-93.6720383
0
LINE
8
0
10
150.673209
20
-93.6720383
11
145.3250435
21
-97.016448
0
LINE
8
0
10
145.3250435
20
-97.016448
11
126.0974065
21
-91.5030118
0
LINE
8
0
10
126.0974065
20
-91.5030118
11
119.5795851
21
-99.271687
0
ENDSEC
0
EOF