0
SECTION
2
HEADER
9
$INSUNITS
70
4
0
ENDSEC
0
SECTION
2
TABLES
0
TABLE
2
LTYPE
0
LTYPE
72
65
70
64
2
CONTINUOUS
3
______
73
0
40
0
0
ENDTAB
0
TABLE
2
LAYER
0
ENDTAB
0
ENDSEC
0
SECTION
2
ENTITIES
0
LINE
8
0
10
117.212364
20
-84.1975708
11
92.11997
21
-94.150348
0
LINE
8
0
10
89.614768
20
-97.4690941
11
83.2343461
21
-161.0423448
0
LINE
8
0
10
83.4234722
20
-162.718206
11
102.3487697
21
-218.9252701
0
LINE
8
0
10
105.6052365
20
-221.612995
11
124.0427262
21
-224.098584
0
LINE
8
0
10
172.7213893
20
-230.6610367
11
181.3528346
21
-231.8246564
0
LINE
8
0
10
183.1895198
20
-231.6425909
11
221.3766035
21
-218.4937236
0
LINE
8
0
10
222.6788762
20
-218.2757978
11
236.7096484
21
-218.2757978
0
LINE
8
0
10
238.0119211
20
-218.4937236
11
276.1990048
21
-231.6425909
0
LINE
8
0
10
278.03569
20
-231.8246564
11
286.6671353
21
-230.6610367
0
LINE
8
0
10
335.3457984
20
-224.098584
11
353.7832881
21
-221.612995
0
LINE
8
0
10
357.0397549
20
-218.9252701
11
375.9650524
21
-162.718206
0
LINE
8
0
10
376.1541785
20
-161.0423448
11
369.7737566
21
-97.4690941
0
LINE
8
0
10
367.2685546
20
-94.150348
11
342.1761606
21
-84.1975708
0
LINE
8
0
10
340.8284722
20
-83.9177836
11
229.8213771
21
-80.3883383
0
LINE
8
0
10
229.5671475
20
-80.3883383
11
118.5600524
21
-83.9177836
0
ARC
8
0
10
93.5947733
20
-97.8685405
40
4
50
111.6355151
51
174.2687989
0
ARC
8
0
10
87.2143514
20
-161.4417912
40
4
50
174.2687989
51
198.6087292
0
ARC
8
0
10
106.1396489
20
-217.6488553
40
4
50
198.6087292
51
262.3221482
0
ARC
8
0
10
181.887247
20
-227.8605167
40
4
50
262.3221482
51
289.000002
0
ARC
8
0
10
222.6788762
20
-222.2757978
40
4
50
90
51
109.000002
0
ARC
8
0
10
236.7096484
20
-222.2757978
40
4
50
70.999998
51
90
0
ARC
8
0
10
277.5012776
20
-227.8605167
40
4
50
250.999998
51
277.6778518
0
ARC
8
0
10
353.2488757
20
-217.6488553
40
4
50
277.6778518
51
341.3912708
0
ARC
8
0
10
372.1741732
20
-161.4417912
40
4
50
341.3912708
51
5.7312011
0
ARC
8
0
10
365.7937513
20
-97.8685405
40
4
50
5.7312011
51
68.3644849
0
ARC
8
0
10
340.7013574
20
-87.9157633
40
4
50
68.3644849
51
88.178908
0
ARC
8
0
10
229.6942623
20
-84.386318
40
4
50
88.178908
51
91.821092
0
ARC
8
0
10
118.6871672
20
-87.9157633
40
4
50
91.821092
51
111.6355151
0
LINE
8
0
10
339.8089395
20
-99.271687
11
359.5075566
21
-95.7982893
0
LINE
8
0
10
359.5075566
20
-95.7982893
11
369.5795851
21
-152.919601
0
LINE
8
0
10
369.5795851
20
-152.919601
11
349.880968
21
-156.3929987
0
LINE
8
0
10
349.880968
20
-156.3929987
11
348.3179173
21
-147.5284979
0
LINE
8
0
10
348.3179173
20
-147.5284979
11
330.0511368
21
-152.7720295
0
LINE
8
0
10
330.0511368
20
-152.7720295
11
328.6726054
21
-147.9645195
0
LINE
8
0
10
328.6726054
20
-147.9645195
11
320.1645813
21
-151.4061644
0
LINE
8
0
10
320.1645813
20
-151.4061644
11
319.6112892
21
-157.8295672
0
LINE
8
0
10
319.6112892
20
-157.8295672
11
329.9133383
21
-174.9750561
0
LINE
8
0
10
278.7236037
20
-227.2237767
11
241.8460155
21
-214.5258047
0
LINE
8
0
10
241.8460155
20
-214.5258047
11
248.3581926
21
-195.6130694
0
LINE
8
0
10
248.3581926
20
-195.6130694
11
252.9296434
21
-186.9182312
0
LINE
8
0
10
252.9296434
20
-186.9182312
11
272.4401488
21
-162.8247635
0
LINE
8
0
10
272.4401488
20
-162.8247635
11
272.0184389
21
-160.8329705
0
LINE
8
0
10
272.0184389
20
-160.8329705
11
254.9208682
21
-125.7777557
0
LINE
8
0
10
254.9208682
20
-125.7777557
11
272.0002021
21
-117.447608
0
LINE
8
0
10
272.0002021
20
-117.447608
11
270.2444706
21
-113.8535278
0
LINE
8
0
10
270.2444706
20
-113.8535278
11
288.2225985
21
-105.0850089
0
LINE
8
0
10
288.2225985
20
-105.0850089
11
290.0413731
21
-100.8402932
0
LINE
8
0
10
290.0413731
20
-100.8402932
11
308.7153156
21
-93.6720383
0
LINE
8
0
10
308.7153156
20
-93.6720383
11
314.0634811
21
-97.016448
0
LINE
8
0
10
314.0634811
20
-97.016448
11
333.2911181
21
-91.5030118
0
LINE
8
0
10
333.2911181
20
-91.5030118
11
339.8089395
21
-99.271687
0
LINE
8
0
10
119.5795851
20
-99.271687
11
99.880968
21
-95.7982893
0
LINE
8
0
10
99.880968
20
-95.7982893
11
89.8089395
21
-152.919601
0
LINE
8
0
10
89.8089395
20
-152.919601
11
109.5075566
21
-156.3929987
0
LINE
8
0
10
109.5075566
20
-156.3929987
11
111.0706073
21
-147.5284979
0
LINE
8
0
10
111.0706073
20
-147.5284979
11
129.3373878
21
-152.7720295
0
LINE
8
0
10
129.3373878
20
-152.7720295
11
130.7159192
21
-147.9645195
0
LINE
8
0
10
130.7159192
20
-147.9645195
11
139.2239433
21
-151.4061644
0
LINE
8
0
10
139.2239433
20
-151.4061644
11
139.7772354
21
-157.8295672
0
LINE
8
0
10
139.7772354
20
-157.8295672
11
129.4751863
21
-174.9750561
0
LINE
8
0
10
180.6649209
20
-227.2237767
11
217.5425091
21
-214.5258047
0
LINE
8
0
10
217.5425091
20
-214.5258047
11
211.030332
21
-195.6130694
0
LINE
8
0
10
211.030332
20
-195.6130694
11
206.4588812
21
-186.9182312
0
LINE
8
0
10
186.9483758
20
-162.8247635
11
206.4588812
21
-186.9182312
0
LINE
8
0
10
186.9483758
20
-162.8247635
11
187.3700857
21
-160.8329705
0
LINE
8
0
10
187.3700857
20
-160.8329705
11
204.4676564
21
-125.7777557
0
LINE
8
0
10
204.4676564
20
-125.7777557
11
187.3883225
21
-117.447608
0
LINE
8
0
10
187.3883225
20
-117.447608
11
189.144054
21
-113.8535278
0
LINE
8
0
10
189.144054
20
-113.8535278
11
171.1659261
21
-105.0850089
0
LINE
8
0
10
171.1659261
20
-105.0850089
11
169.3471515
21
-100.8402932
0
LINE
8
0
10
169.3471515
20
-100.8402932
11
150.673209
21
-93.6720383
0
LINE
8
0
10
150.673209
20
-93.6720383
11
145.3250435
21
-97.016448
0
LINE
8
0
10
145.3250435
20
-97.016448
11
126.0974065
21
-91.5030118
0
LINE
8
0
10
126.0974065
20
-91.5030118
11
119.5795851
21
-99.271687
0
LINE
8
0
10
124.0427262
20
-224.098584
11
129.4751863
21
-174.9750561
0
LINE
8
0
10
180.6649209
20
-227.2237767
11
172.7213893
21
-230.6610367
0
LINE
8
0
10
335.3457984
20
-224.098584
11
329.9133383
21
-174.9750561
0
LINE
8
0
10
278.7236037
20
-227.2237767
11
286.6671353
21
-230.6610367
0
ENDSEC
0
EOF