0
SECTION
2
HEADER
9
$INSUNITS
70
4
0
ENDSEC
0
SECTION
2
TABLES
0
TABLE
2
LTYPE
0
LTYPE
72
65
70
64
2
CONTINUOUS
3
______
73
0
40
0
0
ENDTAB
0
TABLE
2
LAYER
0
ENDTAB
0
ENDSEC
0
SECTION
2
ENTITIES
0
LINE
8
0
10
117.5370693
20
-84.068778
11
90.9888822
21
-94.5989886
0
LINE
8
0
10
89.7362811
20
-96.2583617
11
83.191274
21
-161.471507
0
LINE
8
0
10
83.2858371
20
-162.3094376
11
102.7453501
21
-220.1030913
0
LINE
8
0
10
104.3735834
20
-221.4469537
11
121.5639796
21
-223.76442
0
LINE
8
0
10
185.4368167
20
-230.8687845
11
221.6930548
21
-218.3847606
0
LINE
8
0
10
222.3441912
20
-218.2757978
11
237.0443334
21
-218.2757978
0
LINE
8
0
10
237.6954698
20
-218.3847606
11
273.9517079
21
-230.8687845
0
LINE
8
0
10
337.824545
20
-223.76442
11
355.0149412
21
-221.4469537
0
LINE
8
0
10
356.6431745
20
-220.1030913
11
376.1026875
21
-162.3094376
0
LINE
8
0
10
376.1972506
20
-161.471507
11
369.6522435
21
-96.2583617
0
LINE
8
0
10
368.3996424
20
-94.5989886
11
341.8514553
21
-84.068778
0
LINE
8
0
10
341.177611
20
-83.9288844
11
229.7578197
21
-80.3863175
0
LINE
8
0
10
229.6307049
20
-80.3863175
11
118.2109136
21
-83.9288844
0
LINE
8
0
10
340.946184
20
-99.0711601
11
357.5379411
21
-96.1455857
0
LINE
8
0
10
359.854853
20
-97.7679048
11
369.2322887
21
-150.9499855
0
LINE
8
0
10
367.6099696
20
-153.2668974
11
351.8505835
21
-156.0457023
0
LINE
8
0
10
349.5336716
20
-154.4233832
11
348.7037392
21
-149.7166025
0
LINE
8
0
10
346.1823029
20
-148.1415321
11
331.9740496
21
-152.2200519
0
LINE
8
0
10
329.4997054
20
-150.8489599
11
329.285118
21
-150.1006048
0
LINE
8
0
10
326.6125985
20
-148.7978284
11
321.301918
21
-150.9460918
0
LINE
8
0
10
320.0592927
20
-152.6285048
11
319.6669306
21
-157.1836028
0
LINE
8
0
10
319.9452175
20
-158.3853172
11
329.5692501
21
-174.4023972
0
LINE
8
0
10
275.4482884
20
-226.0959952
11
243.7370525
21
-215.176941
0
LINE
8
0
10
242.4971519
20
-212.6347674
11
248.3084682
21
-195.7574795
0
LINE
8
0
10
248.429268
20
-195.477885
11
252.8378422
21
-187.0928358
0
LINE
8
0
10
253.0537877
20
-186.7649258
11
271.8404234
21
-163.5653626
0
LINE
8
0
10
272.2427575
20
-161.8924577
11
272.0184389
21
-160.8329705
0
LINE
8
0
10
272.0184389
20
-160.8329705
11
255.7976105
21
-127.5753438
0
LINE
8
0
10
256.7184563
20
-124.9010134
11
270.2014901
21
-118.3248984
0
LINE
8
0
10
271.1217877
20
-115.6494447
11
270.2444706
21
-113.8535278
0
LINE
8
0
10
270.2444706
20
-113.8535278
11
287.553977
21
-105.4111174
0
LINE
8
0
10
288.5155858
20
-104.4012255
11
289.7085898
21
-101.6169537
0
LINE
8
0
10
290.8302051
20
-100.537489
11
307.783991
21
-94.0295403
0
LINE
8
0
10
309.5611365
20
-94.200962
11
313.3081473
21
-96.5441093
0
LINE
8
0
10
314.9198317
20
-96.7708934
11
332.0425268
21
-91.8610396
0
LINE
8
0
10
334.125975
20
-92.4980885
11
339.0667142
21
-98.3870191
0
LINE
8
0
10
118.4423406
20
-99.0711601
11
101.8505835
21
-96.1455857
0
LINE
8
0
10
99.5336716
20
-97.7679048
11
90.1562359
21
-150.9499855
0
LINE
8
0
10
91.778555
20
-153.2668974
11
107.5379411
21
-156.0457023
0
LINE
8
0
10
109.854853
20
-154.4233832
11
110.6847854
21
-149.7166025
0
LINE
8
0
10
113.2062217
20
-148.1415321
11
127.414475
21
-152.2200519
0
LINE
8
0
10
129.8888192
20
-150.8489599
11
130.1034066
21
-150.1006048
0
LINE
8
0
10
132.7759261
20
-148.7978284
11
138.0866066
21
-150.9460918
0
LINE
8
0
10
139.3292319
20
-152.6285048
11
139.721594
21
-157.1836028
0
LINE
8
0
10
139.4433071
20
-158.3853172
11
129.8192745
21
-174.4023972
0
LINE
8
0
10
183.9402362
20
-226.0959952
11
215.6514721
21
-215.176941
0
LINE
8
0
10
216.8913727
20
-212.6347674
11
211.0800564
21
-195.7574795
0
LINE
8
0
10
210.9592566
20
-195.477885
11
206.5506824
21
-187.0928358
0
LINE
8
0
10
186.9483758
20
-162.8247635
11
206.3347369
21
-186.7649258
0
LINE
8
0
10
186.9483758
20
-162.8247635
11
187.3190529
21
-161.0740053
0
LINE
8
0
10
187.4780908
20
-160.6115273
11
203.5909141
21
-127.5753438
0
LINE
8
0
10
202.6700683
20
-124.9010134
11
187.3883225
21
-117.447608
0
LINE
8
0
10
187.3883225
20
-117.447608
11
188.2656396
21
-115.6516911
0
LINE
8
0
10
187.345342
20
-112.9762374
11
171.8345476
21
-105.4111174
0
LINE
8
0
10
170.8729388
20
-104.4012255
11
169.6799348
21
-101.6169537
0
LINE
8
0
10
168.5583195
20
-100.537489
11
151.6045336
21
-94.0295403
0
LINE
8
0
10
149.8273881
20
-94.200962
11
146.0803773
21
-96.5441093
0
LINE
8
0
10
144.4686929
20
-96.7708934
11
127.3459978
21
-91.8610396
0
LINE
8
0
10
125.2625496
20
-92.4980885
11
120.3218104
21
-98.3870191
0
LINE
8
0
10
123.8220418
20
-221.97338
11
128.4469544
21
-173.7739154
0
LINE
8
0
10
128.4469544
20
-173.7739154
11
129.8192745
21
-174.4023972
0
LINE
8
0
10
182.6287637
20
-228.3719564
11
182.8230714
21
-229.3626714
0
LINE
8
0
10
335.5664828
20
-221.97338
11
330.9415702
21
-173.7739154
0
LINE
8
0
10
330.9415702
20
-173.7739154
11
329.5692501
21
-174.4023972
0
LINE
8
0
10
276.7597609
20
-228.3719564
11
276.5654532
21
-229.3626714
0
ARC
8
0
10
91.7262838
20
-96.4580849
40
2
50
111.6355151
51
174.2687989
0
ARC
8
0
10
85.1812767
20
-161.6712302
40
2
50
174.2687989
51
198.6087292
0
ARC
8
0
10
104.6407896
20
-219.4648839
40
2
50
198.6087292
51
262.3221482
0
ARC
8
0
10
121.8311858
20
-221.7823502
40
2
50
262.3221482
51
354.5190438
0
ARC
8
0
10
137.7289725
20
-157.355241
40
2
50
328.9999987
51
4.9231281
0
ARC
8
0
10
137.3366104
20
-152.800143
40
2
50
4.9231281
51
67.975805
0
ARC
8
0
10
132.0259299
20
-150.6518796
40
2
50
67.975805
51
163.9999976
0
ARC
8
0
10
127.9662958
20
-150.2976851
40
2
50
253.9837252
51
343.9999976
0
ARC
8
0
10
112.6544009
20
-150.0638989
40
2
50
73.9837252
51
169.9999992
0
ARC
8
0
10
107.8852375
20
-154.0760868
40
2
50
259.9999992
51
349.9999992
0
ARC
8
0
10
92.1258514
20
-151.2972819
40
2
50
169.9999992
51
259.9999992
0
ARC
8
0
10
101.5032871
20
-98.1152012
40
2
50
79.9999992
51
169.9999992
0
ARC
8
0
10
118.789637
20
-97.1015446
40
2
50
259.9999992
51
320.0037688
0
ARC
8
0
10
126.794723
20
-93.783563
40
2
50
73.9999976
51
140.0037688
0
ARC
8
0
10
145.0199677
20
-94.84837
40
2
50
253.9999976
51
302.0192936
0
ARC
8
0
10
150.8877978
20
-95.8967012
40
2
50
69.0000021
51
122.0192936
0
ARC
8
0
10
167.8415837
20
-102.4046499
40
2
50
23.1941533
51
69.0000021
0
ARC
8
0
10
172.7112899
20
-103.6135293
40
2
50
203.1941533
51
244.0000012
0
ARC
8
0
10
186.4685998
20
-114.7738255
40
2
50
333.9641908
51
64.0000012
0
ARC
8
0
10
201.793326
20
-126.6986015
40
2
50
334.0000012
51
64.0000012
0
ARC
8
0
10
189.2756789
20
-161.4882695
40
2
50
154.0000012
51
168.0456615
0
ARC
8
0
10
204.780445
20
-188.0235666
40
2
50
27.7338716
51
38.999999
0
ARC
8
0
10
209.1890193
20
-196.4086158
40
2
50
19.000002
51
27.7338716
0
ARC
8
0
10
215.0003357
20
-213.2859038
40
2
50
289.000002
51
19.000002
0
ARC
8
0
10
184.5913726
20
-227.9870323
40
2
50
109.000002
51
191.096499
0
ARC
8
0
10
184.7856803
20
-228.9777474
40
2
50
191.096499
51
289.000002
0
ARC
8
0
10
222.3441912
20
-220.2757978
40
2
50
90
51
109.000002
0
ARC
8
0
10
237.0443334
20
-220.2757978
40
2
50
70.999998
51
90
0
ARC
8
0
10
274.6028443
20
-228.9777474
40
2
50
250.999998
51
348.903501
0
ARC
8
0
10
274.797152
20
-227.9870323
40
2
50
348.903501
51
70.999998
0
ARC
8
0
10
244.3881889
20
-213.2859038
40
2
50
160.999998
51
250.999998
0
ARC
8
0
10
250.1995053
20
-196.4086158
40
2
50
152.2661284
51
160.999998
0
ARC
8
0
10
254.6080796
20
-188.0235666
40
2
50
141.000001
51
152.2661284
0
ARC
8
0
10
270.2861315
20
-162.3067219
40
2
50
321.000001
51
11.9543385
0
ARC
8
0
10
257.5951986
20
-126.6986015
40
2
50
115.9999988
51
205.9999988
0
ARC
8
0
10
269.3247479
20
-116.5273103
40
2
50
295.9999988
51
26.0358092
0
ARC
8
0
10
286.6772347
20
-103.6135293
40
2
50
295.9999988
51
336.8058467
0
ARC
8
0
10
291.5469409
20
-102.4046499
40
2
50
110.9999979
51
156.8058467
0
ARC
8
0
10
308.5007268
20
-95.8967012
40
2
50
57.9807064
51
110.9999979
0
ARC
8
0
10
314.3685569
20
-94.84837
40
2
50
237.9807064
51
286.0000024
0
ARC
8
0
10
332.5938016
20
-93.783563
40
2
50
39.9962312
51
106.0000024
0
ARC
8
0
10
340.5988876
20
-97.1015446
40
2
50
219.9962312
51
280.0000008
0
ARC
8
0
10
357.8852375
20
-98.1152012
40
2
50
10.0000008
51
100.0000008
0
ARC
8
0
10
367.2626732
20
-151.2972819
40
2
50
280.0000008
51
10.0000008
0
ARC
8
0
10
351.5032871
20
-154.0760868
40
2
50
190.0000008
51
280.0000008
0
ARC
8
0
10
346.7341237
20
-150.0638989
40
2
50
10.0000008
51
106.0162748
0
ARC
8
0
10
331.4222288
20
-150.2976851
40
2
50
196.0000024
51
286.0162748
0
ARC
8
0
10
327.3625947
20
-150.6518796
40
2
50
16.0000024
51
112.024195
0
ARC
8
0
10
322.0519142
20
-152.800143
40
2
50
112.024195
51
175.0768719
0
ARC
8
0
10
321.6595521
20
-157.355241
40
2
50
175.0768719
51
211.0000013
0
ARC
8
0
10
337.5573388
20
-221.7823502
40
2
50
185.4809562
51
277.6778518
0
ARC
8
0
10
354.747735
20
-219.4648839
40
2
50
277.6778518
51
341.3912708
0
ARC
8
0
10
374.2072479
20
-161.6712302
40
2
50
341.3912708
51
5.7312011
0
ARC
8
0
10
367.6622408
20
-96.4580849
40
2
50
5.7312011
51
68.3644849
0
ARC
8
0
10
341.1140536
20
-85.9278743
40
2
50
68.3644849
51
88.178908
0
ARC
8
0
10
229.6942623
20
-82.3853074
40
2
50
88.178908
51
91.821092
0
ARC
8
0
10
118.274471
20
-85.9278743
40
2
50
91.821092
51
111.6355151
0
ENDSEC
0
EOF